<?xml version="1.0" encoding="utf-8"?>
<!-- Svg Vector Icons : http://www.sfont.cn -->
<!DOCTYPE svg PUBLIC "-//W3C//DTD SVG 1.1//EN" "http://www.w3.org/Graphics/SVG/1.1/DTD/svg11.dtd">
<svg version="1.1" xmlns="http://www.w3.org/2000/svg" xmlns:xlink="http://www.w3.org/1999/xlink" x="0px" y="0px" viewBox="0 0 1000 1000" enable-background="new 0 0 1000 1000" xml:space="preserve">
<metadata> Svg Vector Icons : http://www.sfont.cn </metadata>
<g fill="white"><g transform="translate(0.000000,511.000000) scale(0.100000,-0.100000)"><path d="M4883.1,4725.2l-57.4-49.2v-461.5c0-461.5,0-461.5,49.2-514.8c34.9-36.9,71.8-53.3,119-53.3c164.1,0,190.7,65.6,188.7,459.4c-2.1,430.7-20.5,582.5-78,629.6C5038.9,4788.8,4952.8,4784.7,4883.1,4725.2z"/><path d="M2516.3,4079.1c-32.8-32.8-59.5-82-59.5-106.7c0-59.5,420.4-787.5,477.9-828.6c131.3-92.3,313.8,43.1,258.4,190.7c-43.1,112.8-432.7,765-469.7,783.4C2653.7,4155,2579.9,4140.7,2516.3,4079.1z"/><path d="M7249.8,4093.5c-24.6-26.7-137.4-207.1-248.2-402c-223.5-391.7-239.9-451.2-145.6-531.2c32.8-28.7,80-47.2,121-47.2c90.2,0,114.8,30.8,350.7,440.9c225.6,391.7,244.1,453.2,145.6,535.3C7401.6,4153,7309.3,4153,7249.8,4093.5z"/><path d="M4528.3,2899.9c-668.6-121-1212.1-402-1681.7-873.7c-514.8-512.7-824.5-1148.5-894.2-1827.4C1940,67.6,1940,63.5,1987.2,51.2c26.7-8.2,106.6-14.4,178.4-14.4c127.2,0,127.2,0,127.2,59.5c0,30.8,14.4,139.5,30.8,240c201,1156.7,1074.7,2026.3,2225.2,2212.9c248.2,39,652.2,39,898.3,0c978.3-157.9,1778.1-834.7,2108.3-1784.3c30.8-90.2,57.4-166.1,59.5-170.2c4.1-6.2,322,77.9,334.3,88.2c16.4,14.4-137.4,397.9-231.7,580.4c-416.3,801.9-1169,1386.4-2059.1,1597.7c-182.5,43.1-278.9,53.3-596.8,59.5C4803.1,2924.5,4632.9,2918.3,4528.3,2899.9z"/><path d="M844.8,2395.4c-108.7-45.1-143.6-194.8-63.6-272.8c24.6-24.6,203-135.4,395.8-246.1c385.6-217.4,457.3-237.9,537.3-151.8c61.5,65.6,59.5,178.4,0,233.8c-65.6,59.5-715.8,432.7-777.3,445C910.5,2409.7,867.4,2405.6,844.8,2395.4z"/><path d="M8681.3,2200.5c-203-116.9-385.6-233.8-404-258.4c-51.3-61.5-47.2-166.1,10.3-217.4c67.7-61.5,110.8-69.7,188.7-39c135.4,57.4,750.6,426.6,769.1,463.5c36.9,69.7,22.5,143.6-39,207.1c-32.8,32.8-82,59.5-108.7,59.5C9071,2415.9,8884.4,2319.5,8681.3,2200.5z"/><path d="M5389.6,537.2c-365.1-53.3-773.2-192.8-1050.1-361L4189.9,84l-266.6-12.3c-726-32.8-1384.4-303.5-1837.6-756.8c-149.7-149.7-326.1-395.8-371.2-518.9c-20.5-63.6-41-75.9-157.9-114.9C967.9-1513.7,498.2-1954.6,403.9-2397.6c-139.5-674.7,506.6-1333.1,1515.6-1544.3c123.1-26.7,317.9-47.2,506.6-53.3l307.6-10.3l256.4-121c559.9-264.6,1128-395.8,1835.6-422.5c719.9-28.7,1511.5,106.6,2083.7,356.8c55.4,24.6,186.6,51.3,317.9,63.6c1142.4,121,2112.4,635.8,2446.7,1296.2c233.8,463.5,121,914.7-315.8,1275.7c-145.6,121-469.7,297.4-646,352.8c-61.5,20.5-121,43.1-129.2,51.3c-10.3,8.2-30.8,67.7-47.2,133.3C8367.6-373.3,7662,219.3,6782.2,455.2C6361.8,568,5820.3,600.8,5389.6,537.2z M6525.8,159.9c596.8-127.2,1031.6-350.7,1351.5-699.4c205.1-219.4,322-475.8,354.8-769.1l12.3-125.1l209.2-55.4c297.4-77.9,596.8-229.7,750.6-379.4c338.4-332.2,322-738.3-47.2-1123.9c-393.8-412.2-1115.7-697.3-2003.7-793.7c-219.5-22.5-285.1-39-461.5-112.8c-473.8-201-1017.2-297.4-1671.5-297.4c-605,0-1037.8,65.6-1503.3,225.6c-194.8,69.7-553.7,237.9-637.8,301.5c-32.8,22.6-86.1,26.7-258.4,18.5c-434.8-20.5-896.2,69.7-1251,244c-174.3,86.1-244.1,135.4-365.1,254.3c-201,203-258.4,328.1-260.5,564c0,155.9,6.2,188.7,67.7,311.7c139.5,283,512.7,541.4,957.8,658.3l184.6,49.2l41,121c75.9,217.4,157.9,340.5,358.9,541.4c399.9,399.9,943.4,609.1,1622.3,625.5l322,8.2l129.2,90.2c285.1,196.9,631.7,324,1074.7,391.7c34.9,4.1,231.7,6.2,440.9,2.1C6230.5,205,6372,192.7,6525.8,159.9z"/><path d="M227.5,34.8C98.3-2.1,59.4-141.6,147.5-244.2l49.2-57.4l463.5,2c457.4,0,463.5,2.1,514.8,49.2c34.9,32.8,51.3,69.7,51.3,116.9c0,96.4-28.7,141.5-104.6,168.2C1041.7,61.4,321.9,61.4,227.5,34.8z"/><path d="M8906.9,43c-168.2-43.1-188.7-274.8-30.8-332.2c75.9-24.6,559.9-28.7,797.8-4.1c123.1,12.3,157.9,22.6,188.7,61.5c53.3,65.6,49.2,151.8-10.3,221.5l-49.2,57.4l-428.6,4.1C9140.8,53.2,8929.5,49.1,8906.9,43z"/></g></g>
</svg>