<?xml version="1.0" encoding="utf-8"?>
<!-- Svg Vector Icons : http://www.sfont.cn -->
<!DOCTYPE svg PUBLIC "-//W3C//DTD SVG 1.1//EN" "http://www.w3.org/Graphics/SVG/1.1/DTD/svg11.dtd">
<svg version="1.1" xmlns="http://www.w3.org/2000/svg" xmlns:xlink="http://www.w3.org/1999/xlink" x="0px" y="0px" viewBox="0 0 1000 1000" enable-background="new 0 0 1000 1000" xml:space="preserve">
<metadata> Svg Vector Icons : http://www.sfont.cn </metadata>
<g fill="white"><g transform="translate(0.000000,511.000000) scale(0.100000,-0.100000)"><path d="M2092.6,4550.8c-173-43.2-317.1-123.6-446.9-247.1c-92.7-86.5-133.9-111.2-208-123.6c-533.4-80.3-862.9-469.5-700.2-827.9c88.5-197.7,360.4-376.9,646.6-426.3c80.3-14.4,185.3-47.4,234.8-72.1c247.1-125.6,615.8-158.6,902-80.3c88.6,22.6,205.9,47.4,261.5,51.5l96.8,10.3v170.9v168.9l-103,12.3c-84.4,10.3-123.6,2.1-220.4-43.2c-109.1-51.5-142.1-55.6-366.6-55.6c-228.6,0-257.4,4.1-374.8,59.7c-72.1,33-140,72.1-152.4,86.5c-14.4,18.5-65.9,28.8-140,28.8c-265.7,0-475.7,123.6-475.7,278c0,179.2,177.1,282.1,502.5,292.4l203.9,6.2l45.3,96.8c55.6,119.4,115.3,177.1,238.9,230.6c302.7,133.9,661.1,39.1,790.8-208l59.7-115.3L3009,3830c267.7-28.8,469.5-158.6,471.6-300.7c0-39.1-2.1-86.5-6.2-105c-6.2-22.6,35-63.8,125.6-127.7c154.5-109.2,162.7-105,218.3,84.4c88.5,306.8-154.5,617.8-589,759.9c-80.3,26.8-135.9,61.8-189.5,123.6C2821.6,4507.5,2411.8,4633.1,2092.6,4550.8z"/><path d="M6180.4,3832.1c-527.2-100.9-1025.6-403.6-1262.4-770.2c-63.8-100.9-74.1-107.1-152.4-107.1c-156.5,0-455.1-45.3-630.2-94.7c-768.1-220.3-1252.1-770.2-1159.4-1318c37.1-216.2,131.8-385.1,323.3-576.6c311-308.9,712.5-486,1248-547.8c181.2-20.6,234.8-35,329.5-92.7C5165.2,154,5601.8,26.3,6015.7-10.7c416-35,916.4,32.9,1280.9,177.1c138,55.6,160.6,57.7,535.4,59.7c317.1,2.1,432.5,12.4,601.3,47.4c998.8,214.2,1610.4,867,1437.4,1534.2c-94.7,366.6-391.3,677.5-854.6,897.9c-199.8,94.7-562.2,208-667.2,208c-32.9,0-72.1,39.1-142.1,142.1c-240.9,350.1-634.3,613.7-1116.2,743.4C6878.6,3856.8,6400.8,3873.2,6180.4,3832.1z M7039.2,3459.3c438.6-115.3,774.3-372.7,955.5-737.2l63.8-125.6l195.6-24.7C8835,2495.5,9304.5,2234,9473.4,1888c59.7-119.4,67.9-156.5,67.9-302.7c0-135.9-10.3-185.3-55.6-284.2c-107.1-228.6-364.5-442.8-683.7-570.4C8484.9,605,8007.1,545.3,7642.6,586.5C7449,607.1,7426.4,605,7354.3,570c-354.2-179.2-856.7-265.7-1334.5-228.6c-385.1,30.9-772.3,154.5-1042,333.6c-88.5,59.7-135.9,76.2-205.9,76.2c-162.7,0-457.2,45.3-636.3,96.8c-360.4,103-642.5,311-757.8,556c-45.3,96.8-55.6,148.3-55.6,273.9c2.1,255.4,109.1,438.6,366.6,617.8c282.1,199.8,619.9,292.4,1083.2,296.5l294.5,4.1l72.1,148.3c177.1,362.5,541.6,624,1015.3,727C6372,3521.1,6829.2,3512.8,7039.2,3459.3z"/><path d="M2436.5,687.4c-362.5-53.5-731.1-255.4-918.5-504.5c-82.4-107.1-84.4-109.2-220.4-121.5C733.4,5.7,280.4-272.3,138.3-649.1c-61.8-160.6-47.4-378.9,32.9-535.4c158.6-311,560.2-549.9,1040-617.8c109.1-16.5,208-45.3,259.5-76.2c438.6-253.3,1159.4-304.8,1676.3-117.4c127.7,45.3,185.3,53.6,448.9,57.7c362.5,8.2,539.6,49.4,823.7,189.5c249.2,121.5,448.9,304.8,543.7,498.4c59.7,121.5,67.9,156.5,67.9,313c0,152.4-8.2,191.5-59.7,298.6c-92.7,191.5-306.8,391.3-547.8,510.7c-208,103-580.7,203.9-615.8,168.9c-10.3-12.4-24.7-92.7-30.9-179.2c-14.4-158.6-14.4-160.6,35-160.6c88.6,0,372.7-82.4,498.4-142.1c131.8-65.9,282.1-199.8,335.7-300.7c20.6-37.1,32.9-113.3,35-197.7c0-115.3-8.2-150.3-61.8-236.8c-175-282.1-615.8-440.7-1147.1-411.9c-214.2,12.4-251.2,8.2-319.2-26.8c-164.7-82.4-362.4-127.7-603.4-140c-376.9-18.5-661.1,43.2-926.7,197.7c-113.3,65.9-158.6,80.3-298.6,92.7c-543.7,47.4-877.3,271.8-875.2,593.1c2.1,335.7,401.6,576.6,963.8,580.7l232.7,2.1l72.1,133.9c175,329.5,488.1,498.4,928.8,502.5c214.2,2.1,199.8-14.4,224.5,210.1l12.4,125.6l-78.3,12.4C2704.2,712.1,2595.1,710,2436.5,687.4z"/><path d="M6334.9-1164c-488-88.5-926.7-374.8-1120.3-727c-28.8-55.6-49.4-103-45.3-107.1c12.3-12.4,311-133.9,315.1-129.7c2.1,4.1,26.8,47.4,55.6,98.8c70,121.5,271.8,311,399.5,376.9c226.5,115.3,387.1,148.3,698.1,146.2c255.4,0,306.9-6.2,455.1-55.6c302.7-100.9,564.3-319.2,669.3-556l49.4-115.3l113.3-12.3c659-78.3,1091.5-387.2,1091.5-782.6c0-166.8-65.9-298.6-212.1-438.6c-267.7-251.2-799-393.3-1280.9-339.8c-185.3,18.5-185.3,18.5-348-51.5c-234.7-100.9-483.9-148.3-801.1-148.3c-397.5,0-743.4,88.5-994.7,255.4c-94.7,59.7-129.7,70-288.3,82.4c-591,47.4-992.6,284.2-1056.5,621.9c-26.8,144.2,6.2,276,98.8,395.4l78.3,96.8l-117.4,129.7l-117.4,129.7l-76.2-88.5c-100.9-117.4-191.5-306.9-220.4-455.1c-74.1-407.7,265.7-848.5,811.4-1054.4c166.8-61.8,280.1-88.5,496.3-115.3c121.5-14.4,195.6-39.1,288.3-90.6c306.8-168.9,685.8-257.4,1103.8-257.4c311,0,545.7,37.1,794.9,125.6c175.1,63.9,199.8,65.9,512.8,70c360.4,4.1,506.6,28.8,792.9,133.9c368.6,133.9,671.3,378.9,805.2,648.7c65.9,133.9,70,156.5,70,350.1c0,187.4-6.2,218.3-63.8,339.8c-168.9,354.2-613.7,654.9-1126.5,762c-103,20.6-117.4,30.9-189.5,133.9c-181.2,265.6-527.2,492.2-906.1,597.2C6928-1155.7,6479.1-1137.2,6334.9-1164z"/></g></g>
</svg>