<?xml version="1.0" encoding="utf-8"?>
<!-- Svg Vector Icons : http://www.sfont.cn -->
<!DOCTYPE svg PUBLIC "-//W3C//DTD SVG 1.1//EN" "http://www.w3.org/Graphics/SVG/1.1/DTD/svg11.dtd">
<svg version="1.1" xmlns="http://www.w3.org/2000/svg" xmlns:xlink="http://www.w3.org/1999/xlink" x="0px" y="0px" viewBox="0 0 1000 1000" enable-background="new 0 0 1000 1000" xml:space="preserve">
<metadata> Svg Vector Icons : http://www.sfont.cn </metadata>
<g fill="white"><g transform="translate(0.000000,511.000000) scale(0.100000,-0.100000)"><path d="M4778.8,4432.9c-899.2-123.2-1699.8-654.9-2032.4-1346.7l-78-164.2l-223.8-14.4C1325.7,2835.7,412.1,2285.5,159.6,1530C13.9,1098.9,139.1,622.6,494.3,244.8C691.3,35.5,867.9-95.9,1136.8-235.5c609.7-314.1,1346.8-422.9,2067.3-307.9c158.1,26.7,178.6,24.6,287.4-12.3c170.4-59.5,574.8-137.5,835.6-162.2c558.4-51.3,1147.6,4.1,1648.5,156c166.3,49.3,176.6,51.3,318.2,20.5c468.1-96.5,1118.9-96.5,1574.6-2.1C8523.4-408,9075.6-128.8,9443.1,249c160.1,164.2,219.7,242.2,297.7,398.3c199.1,388,211.4,788.3,37,1155.8c-291.5,617.9-1047,1114.8-1944.2,1274.9c-121.1,22.6-223.8,47.2-227.9,59.5c-26.7,80.1-248.4,373.6-392.1,519.4c-367.5,365.4-847.9,615.9-1422.7,739.1C5569.2,4445.2,5006.7,4463.7,4778.8,4432.9z M5815.5,4036.7c357.2-82.1,611.8-193,872.5-377.7c277.1-195,513.2-474.2,632.3-747.3c57.5-127.3,57.5-127.3,271-149.9c332.6-34.9,765.8-160.1,1061.4-310c671.3-338.7,1008-893,868.4-1433C9324.1,263.3,8322.2-268.4,7098.6-266.3c-277.1,0-599.5,34.9-833.5,90.3c-133.4,30.8-137.6,30.8-320.3-28.7c-745.2-240.2-1630-242.2-2377.3-6.2l-164.2,53.4l-225.8-32.8c-466-67.8-825.3-61.6-1217.4,18.5C1387.3-56.9,902.8,218.2,650.3,567.2c-238.1,332.6-262.8,745.2-65.7,1092.2c238.1,418.8,792.4,739.1,1484.3,858.1c100.6,18.5,336.7,34.9,521.5,39l336.7,8.2l63.6,190.9c71.9,211.4,137.6,338.7,271,509.1c334.6,435.2,891,730.9,1537.7,819.1C5051.8,4118.8,5569.2,4094.2,5815.5,4036.7z"/><path d="M1687-1812.2c-184.8-125.2-213.5-318.2-69.8-466c108.8-112.9,193-137.6,310-92.4c158.1,59.5,258.7,232,215.6,365.4c-26.7,80.1-133.4,195-203.2,221.7C1857.4-1752.7,1758.9-1762.9,1687-1812.2z M1853.3-2072.9c0-10.3-8.2-20.5-20.5-20.5c-10.3,0-20.5,10.3-20.5,20.5c0,12.3,10.3,20.5,20.5,20.5C1845.1-2052.4,1853.3-2060.6,1853.3-2072.9z"/><path d="M3781-1812.2c-184.8-125.2-213.5-318.2-69.8-466c108.8-112.9,193-137.6,310-92.4c158.1,59.5,258.7,232,215.6,365.4c-26.7,80.1-133.4,195-203.2,221.7C3951.5-1752.7,3852.9-1762.9,3781-1812.2z M3947.3-2072.9c0-10.3-8.2-20.5-20.5-20.5c-10.3,0-20.5,10.3-20.5,20.5c0,12.3,10.3,20.5,20.5,20.5C3939.1-2052.4,3947.3-2060.6,3947.3-2072.9z"/><path d="M5895.6-1812.2c-209.4-139.6-215.6-400.3-12.3-525.6c110.9-67.7,168.3-71.9,271-22.6c119.1,57.5,195,166.3,195,279.2c0,154-158.1,316.2-307.9,316.2C5996.2-1765,5936.7-1783.5,5895.6-1812.2z M6061.9-2072.9c0-10.3-8.2-20.5-20.5-20.5c-10.3,0-20.5,10.3-20.5,20.5c0,12.3,10.3,20.5,20.5,20.5C6053.7-2052.4,6061.9-2060.6,6061.9-2072.9z"/><path d="M7999.9-1804c-121.1-73.9-193-223.8-164.2-340.8c20.5-84.2,151.9-213.5,240.2-236.1c104.7-28.8,236.1,24.6,314.1,129.3c78,100.6,88.3,193,34.9,297.7C8338.6-1785.5,8143.6-1715.7,7999.9-1804z M8155.9-2072.9c0-10.3-10.3-20.5-22.6-20.5c-10.3,0-14.4,10.3-8.2,20.5c6.2,12.3,16.4,20.5,22.6,20.5C8151.8-2052.4,8155.9-2060.6,8155.9-2072.9z"/><path d="M2760.7-3635.2c-238.1-119.1-252.5-394.2-26.7-546.1c133.4-90.3,299.7-43.1,406.5,115c100.6,147.8,34.9,344.9-143.7,431.1C2886-3581.9,2869.5-3581.9,2760.7-3635.2z M2900.3-3920.6c0-10.3-8.2-20.5-20.5-20.5c-10.3,0-20.5,10.3-20.5,20.5c0,12.3,10.3,20.5,20.5,20.5C2892.1-3900.1,2900.3-3908.3,2900.3-3920.6z"/><path d="M4881.4-3629.1c-98.5-47.2-141.7-92.4-184.8-197.1c-41.1-98.5-24.6-178.6,55.4-271c121.1-137.5,262.8-168.3,388-84.2c211.4,141.7,213.5,383.9,8.2,525.6C5055.9-3594.2,4975.9-3586,4881.4-3629.1z M5014.9-3908.3c0-6.2-8.2-16.4-20.5-22.6c-10.3-6.2-20.5-2.1-20.5,8.2c0,12.3,10.3,22.6,20.5,22.6C5006.7-3900.1,5014.9-3904.2,5014.9-3908.3z"/><path d="M6973.4-3633.2c-174.5-86.2-244.3-289.5-147.8-431.1c139.6-203.3,342.9-217.6,505-32.9c80.1,92.4,96.5,172.4,55.4,271c-43.1,104.7-86.2,149.9-184.8,195C7096.6-3581.9,7076.1-3583.9,6973.4-3633.2z M7108.9-3920.6c0-10.3-4.1-20.5-8.2-20.5c-6.2,0-16.4,10.3-22.6,20.5c-6.2,12.3-2,20.5,8.2,20.5C7098.6-3900.1,7108.9-3908.3,7108.9-3920.6z"/></g></g>
</svg>