<?xml version="1.0" encoding="utf-8"?>
<!-- Svg Vector Icons : http://www.sfont.cn -->
<!DOCTYPE svg PUBLIC "-//W3C//DTD SVG 1.1//EN" "http://www.w3.org/Graphics/SVG/1.1/DTD/svg11.dtd">
<svg version="1.1" xmlns="http://www.w3.org/2000/svg" xmlns:xlink="http://www.w3.org/1999/xlink" x="0px" y="0px" viewBox="0 0 1000 1000" enable-background="new 0 0 1000 1000" xml:space="preserve">
<metadata> Svg Vector Icons : http://www.sfont.cn </metadata>
<g fill="white"><g transform="translate(0.000000,511.000000) scale(0.100000,-0.100000)"><path d="M4784.9,4304.1c-912.4-127.4-1705.5-651.4-2042.5-1350l-80.1-170.6h-92.5c-147.9,0-476.7-41.1-682.2-86.3C967,2500,245.7,1916.4,118.3,1267.1c-37-187-16.4-474.7,47.3-645.2c150-411,509.6-770.6,1008.9-1013c380.1-184.9,735.6-279.5,1191.8-320.5c265.1-24.7,704.8-2.1,906.2,43.1c65.8,14.4,115.1,8.2,246.6-30.8c741.8-224,1635.7-228.1,2416.5-10.3l217.8,59.6l224-43.2c184.9-37,306.2-43.1,696.6-45.2c495.2-2.1,606.2,10.3,980.2,102.7c822,205.5,1487.7,678.1,1732.2,1230.9c150,339,152.1,729.5,2.1,1064.4C9620,2039.7,9213.2,2421.9,8722,2660.2c-219.9,104.8-614.4,234.3-846.6,277.4c-100.7,18.5-203.4,37-226,41.1c-24.7,6.2-61.7,49.3-92.5,106.9c-28.8,53.4-102.7,162.3-166.4,242.5c-371.9,468.5-924.7,793.2-1590.5,935C5567.8,4312.4,5008.9,4335,4784.9,4304.1z M5738.4,3924c727.4-152.1,1282.2-540.4,1553.5-1089.1c61.7-123.3,100.7-178.8,129.5-184.9c24.6-4.1,127.4-18.5,228.1-30.8c400.7-49.3,846.6-197.3,1167.2-386.3c242.5-139.7,517.8-419.2,614.4-620.6c92.5-187,117.1-293.8,119.2-482.9c2.1-538.4-415.1-1017.2-1138.4-1302.8C7822-409.7,6975.4-467.3,6303.5-319.3l-174.7,39.1l-174.7-57.5c-328.8-111-824-187-1212.4-187c-371.9,0-836.3,69.9-1177.4,178.8l-168.5,53.4l-215.8-32.9c-328.8-49.3-540.4-59.6-815.8-37C1778.7-313.1,1306-148.8,944.4,126.6c-690.4,528.1-659.6,1350,67.8,1853.5c421.2,291.8,945.2,437.7,1586.4,441.8l330.8,2.1l34.9,129.4c203.4,745.9,937,1290.5,1900.7,1409.6C5023.3,3981.5,5578.1,3956.9,5738.4,3924z"/><path d="M3539.7-1673.4c-215.8-133.6-246.6-320.6-80.1-487c115.1-117.1,207.5-135.6,330.8-69.9c115.1,61.7,174.7,145.9,187,265.1c6.2,80.1-2,106.9-53.4,178.8C3819.1-1644.7,3660.9-1597.4,3539.7-1673.4z M3683.5-1942.6c6.2-10.3,2.1-20.5-8.2-20.5c-12.3,0-22.6,10.3-22.6,20.5c0,12.3,4.1,20.5,8.2,20.5C3667.1-1922.1,3677.4-1930.3,3683.5-1942.6z"/><path d="M6163.7-1669.3c-147.9-71.9-226-263-162.3-390.4c45.2-84.2,162.3-184.9,238.4-201.4c92.5-20.5,195.2,22.6,277.4,113c88.4,96.6,108.9,193.2,65.7,289.7c-41.1,94.5-71.9,129.5-156.2,180.8C6340.5-1626.2,6256.2-1624.1,6163.7-1669.3z M6311.7-1965.2c-6.2-10.3-20.6-14.4-30.8-6.2c-10.3,6.2-14.4,20.5-6.2,30.8c6.2,10.3,20.6,14.4,30.8,6.2C6315.8-1940.6,6319.9-1955,6311.7-1965.2z"/><path d="M4875.3-3489.9c-86.3-39.1-191.1-164.4-205.5-246.6c-22.6-115.1,49.3-242.5,174.7-320.6c90.4-53.4,164.4-55.5,267.1-2.1c162.3,82.2,226,261,145.9,404.8C5173.3-3506.4,5002.7-3432.4,4875.3-3489.9z M4996.6-3794.1c-6.2-10.3-20.5-14.4-30.8-6.2c-10.3,6.2-14.4,20.5-6.2,30.8c6.2,10.3,20.5,14.4,30.8,6.2C5000.7-3769.4,5004.8-3783.8,4996.6-3794.1z"/></g></g>
</svg>