<?xml version="1.0" encoding="utf-8"?>
<!-- Svg Vector Icons : http://www.sfont.cn -->
<!DOCTYPE svg PUBLIC "-//W3C//DTD SVG 1.1//EN" "http://www.w3.org/Graphics/SVG/1.1/DTD/svg11.dtd">
<svg version="1.1" xmlns="http://www.w3.org/2000/svg" xmlns:xlink="http://www.w3.org/1999/xlink" x="0px" y="0px" viewBox="0 0 1000 1000" enable-background="new 0 0 1000 1000" xml:space="preserve">
<metadata> Svg Vector Icons : http://www.sfont.cn </metadata>
<g fill="white"><g transform="translate(0.000000,511.000000) scale(0.100000,-0.100000)"><path d="M4783.7,4303.9c-922.4-127.4-1709.1-651.2-2048.1-1368.1l-71.9-152h-92.4c-131.5,0-464.3-39-643-76c-764.2-154.1-1411.3-577.2-1684.5-1097C137,1407.4,100,1255.4,100,1031.5c0-384.2,150-702.6,474.5-1010.7C962.8-346.9,1492.8-587.3,2144-690c228-37,797-32.9,1031.2,8.2c184.9,30.8,191,30.8,341-16.4c341-104.8,838.1-174.6,1244.9-174.6c386.2,0,932.6,82.2,1249,187c123.3,41.1,135.6,41.1,279.4,10.3c462.2-94.5,1121.6-96.6,1575.6-2.1c747.8,156.1,1355.8,491,1715.3,942.9c569,723.1,365.7,1606.4-509.5,2191.9c-341,228-803.2,410.8-1236.7,488.9c-123.3,20.5-228,49.3-232.1,61.6c-28.8,88.3-246.5,371.8-402.6,525.9c-371.8,367.7-836.1,608.1-1407.2,731.3C5568.4,4312.1,5007.6,4334.7,4783.7,4303.9z M5738.9,3923.8c745.7-156.1,1316.8-567,1573.5-1131.9c65.7-145.9,49.3-135.6,336.9-172.6c891.6-110.9,1631.1-569,1842.7-1140.1c65.7-176.7,65.7-521.8,2-696.4C9229.1,80.4,8255.4-402.4,7098.8-400.4c-281.4,0-604,34.9-838.1,90.4c-133.5,30.8-135.6,30.8-326.6-30.8c-739.5-238.3-1627-240.4-2368.6-4.1l-168.5,53.4l-226-37c-287.6-47.2-801.2-49.3-1078.5-4.1C1338.7-207.2,782,127.6,549.9,593.9c-84.2,172.5-90.4,193.1-96.5,390.3c-6.2,172.5,0,230.1,37,341c174.6,523.8,762.1,920.3,1571.5,1060c100.7,18.5,336.9,34.9,523.8,39l339,8.2l37,119.1c123.3,406.7,375.9,749.8,733.4,992.2c271.2,184.9,671.7,343.1,986,388.3c84.2,12.3,176.7,26.7,205.4,30.8C5003.5,3983.4,5582.8,3956.7,5738.9,3923.8z"/><path d="M2220-1667.8c-147.9-71.9-226-262.9-162.3-390.3c45.2-84.2,162.3-184.9,238.3-201.3c34.9-8.2,94.5-2.1,133.5,10.3c92.4,30.8,211.6,162.3,228,254.7c20.5,106.8-51.4,244.4-162.3,310.2C2394.6-1624.7,2316.5-1620.6,2220-1667.8z M2369.9-1941c6.2-10.3-2.1-20.5-20.5-20.5s-26.7,10.3-20.5,20.5c6.2,12.3,16.4,20.5,20.5,20.5S2363.8-1928.7,2369.9-1941z"/><path d="M4870-1667.8c-147.9-71.9-226-262.9-162.3-390.3c45.2-84.2,162.3-184.9,238.3-201.3c92.5-20.5,195.2,22.6,277.3,113c88.3,96.6,108.9,193.1,65.7,289.7c-41.1,94.5-71.9,129.4-156.1,180.8C5046.6-1624.7,4962.4-1622.6,4870-1667.8z M5017.9-1963.6c-6.2-10.3-20.5-14.4-30.8-6.2c-10.3,6.2-14.4,20.5-6.2,30.8c6.2,10.3,20.5,14.4,30.8,6.2C5022-1939,5026.1-1953.4,5017.9-1963.6z"/><path d="M7485-1671.9c-215.7-133.5-246.5-320.5-80.1-486.9c115-117.1,207.5-135.6,330.8-69.9c115,61.6,174.6,145.9,186.9,265c6.2,80.1-2,106.8-53.4,178.7C7764.4-1643.2,7606.2-1595.9,7485-1671.9z M7628.8-1941c6.2-10.3,2.1-20.5-8.2-20.5c-12.3,0-22.6,10.3-22.6,20.5c0,12.3,4.1,20.5,8.2,20.5C7612.4-1920.5,7622.7-1928.7,7628.8-1941z"/><path d="M3559.4-3490c-82.2-37-186.9-164.3-201.3-248.6c-22.6-117.1,63.7-260.9,197.2-330.7c119.1-61.6,271.2-12.3,367.7,121.2c106.8,145.9,63.7,322.5-102.7,427.3C3719.6-3455,3655.9-3448.9,3559.4-3490z M3694.9-3777.5c0-6.2-8.2-16.4-20.5-22.6c-10.3-6.2-20.5-2.1-20.5,8.2c0,12.3,10.3,22.6,20.5,22.6C3686.7-3769.3,3694.9-3773.4,3694.9-3777.5z"/><path d="M6164.2-3504.3c-176.7-88.3-236.3-295.8-127.4-449.9c51.4-71.9,178.7-143.8,256.8-143.8c115,0,281.4,141.7,308.1,265c26.7,125.3-80.1,295.8-221.8,349.2C6297.7-3453,6264.8-3455,6164.2-3504.3z M6312.1-3791.9c-6.2-10.3-20.5-14.4-30.8-6.2c-10.3,6.2-14.4,20.5-6.2,30.8c6.2,10.3,20.5,14.4,30.8,6.2C6316.2-3767.3,6320.3-3781.6,6312.1-3791.9z"/></g></g>
</svg>