<?xml version="1.0" encoding="utf-8"?>
<!-- Svg Vector Icons : http://www.sfont.cn -->
<!DOCTYPE svg PUBLIC "-//W3C//DTD SVG 1.1//EN" "http://www.w3.org/Graphics/SVG/1.1/DTD/svg11.dtd">
<svg version="1.1" xmlns="http://www.w3.org/2000/svg" xmlns:xlink="http://www.w3.org/1999/xlink" x="0px" y="0px" viewBox="0 0 1000 1000" enable-background="new 0 0 1000 1000" xml:space="preserve">
<metadata> Svg Vector Icons : http://www.sfont.cn </metadata>
<g fill="white"><g transform="translate(0.000000,511.000000) scale(0.100000,-0.100000)"><path d="M4273.5,4953.5c-1498.9-116.2-2756.4-1239.2-3079.8-2754.1c-63.8-305.2-59.2-1002.3,11.4-1318.9c77.5-341.7,252.9-817.8,350.8-943.1c29.6-38.7,38.7-36.4,193.6,52.4l164,93.4l-88.8,177.7c-189.1,375.9-271.1,717.6-289.3,1189.1c-13.7,369,9.1,592.3,95.7,922.6C1922.7,3488.7,2861.2,4338.4,4009.3,4532c275.6,47.8,776.8,47.8,1041,2.3c202.8-36.4,510.3-118.5,510.3-136.7c0-6.8-54.7-38.7-118.5-70.6c-355.4-177.7-806.4-564.9-1059.3-906.6c-355.4-480.7-576.3-1068.4-612.8-1635.6l-15.9-223.2h195.9h198.2v109.3c0,446.5,193.6,1038.8,473.8,1448.8c314.4,462.4,888.4,881.6,1416.9,1038.8c175.4,52.4,236.9,111.6,232.4,230.1c-2.3,95.7-34.2,125.3-230.1,225.5C5510.5,4878.3,4877.2,5001.3,4273.5,4953.5z"/><path d="M4417.1,750.6C3858.9,650.3,3371.5,397.5,3007,19.3c-141.2-145.8-323.5-396.4-350.8-482.9c-9.1-31.9-63.8-43.3-309.8-68.3C936.3-664.1-75.1-1566.1,125.3-2516.1c100.2-482.9,514.8-936.2,1113.9-1218.7c533.1-250.6,1211.9-357.6,1817.8-282.5l195.9,22.8l180-129.8c200.5-145.8,592.3-341.7,852-428.3c920.3-305.2,2027.4-241.5,2847.5,168.6c136.7,68.3,207.3,88.8,353.1,100.2c1050.1,91.1,2016,665.2,2312.1,1375.9c214.1,514.8,88.8,1061.5-344,1508c-471.5,485.2-1186.9,790.5-2027.4,867.9l-287.1,27.3l-57,116.2c-223.2,453.3-804.1,893-1410.1,1068.4C5310,787,4774.7,816.6,4417.1,750.6z M5278.1,374.7c246-34.2,505.7-118.5,749.5-243.8c366.7-191.4,706.2-578.6,808.7-929.4l27.3-93.4l334.9-13.7c373.6-15.9,644.7-57,947.6-143.5c1041-296.2,1596.9-1075.2,1273.4-1786C9162.1-3399.9,8339.7-3837.3,7424-3896.5c-191.3-13.7-232.3-22.8-405.5-111.6c-1123-567.2-2642.5-430.5-3508.1,316.7c-118.5,102.5-129.9,107.1-227.8,93.4c-389.5-52.4-519.4-61.5-785.9-47.8c-478.4,22.8-845.1,111.6-1207.3,289.3c-344,170.8-631,457.9-742.6,742.6c-70.6,184.5-70.6,487.5,0,672c184.5,476.1,758.6,854.3,1501.2,988.7c109.4,18.2,346.3,41,526.2,45.6l328,11.4l70.6,175.4c88.8,218.7,168.6,344,318.9,501.2C3738.2,254,4501.3,484,5278.1,374.7z"/></g></g>
</svg>