<?xml version="1.0" encoding="utf-8"?>
<!-- Svg Vector Icons : http://www.sfont.cn -->
<!DOCTYPE svg PUBLIC "-//W3C//DTD SVG 1.1//EN" "http://www.w3.org/Graphics/SVG/1.1/DTD/svg11.dtd">
<svg version="1.1" xmlns="http://www.w3.org/2000/svg" xmlns:xlink="http://www.w3.org/1999/xlink" x="0px" y="0px" viewBox="0 0 1000 1000" enable-background="new 0 0 1000 1000" xml:space="preserve">
<metadata> Svg Vector Icons : http://www.sfont.cn </metadata>
<g fill="white"><g transform="translate(0.000000,511.000000) scale(0.100000,-0.100000)"><path d="M3188,4744c-570.4-44.7-1100.6-230.4-1599.5-559.3c-284.1-190.1-727-628.6-915-912.7C87.4,2388.4-55.8,1345.9,273.1,372.8C572.8-515.3,1279.8-1280.4,2147.7-1654c241.6-102.9,628.6-208,879.2-237.1c199.1-24.6,187.9-35.8,199.1,212.5c6.7,161.1,35.8,140.9-266.2,183.4C1908.4-1352,982.2-573.5,640,451.1C530.3,780,490.1,1032.7,487.8,1401.9c-2.2,825.5,284.1,1541.3,843.4,2105.1c400.4,402.7,863.5,655.5,1465.3,803.1c89.5,22.4,295.3,40.3,536.9,49.2c429.5,13.4,653.2-13.4,964.2-111.9l165.5-53.7l-156.6-78.3C3838.9,3876,3373.6,3424.2,3085.1,2932c-221.5-382.5-369.1-861.3-393.7-1279.6l-13.4-241.6l187.9,6.7l187.9,6.7l13.4,212.5c71.6,1069.3,789.7,1977.6,1841.1,2326.5c179,58.2,237.1,107.4,237.1,203.6c0,107.4-35.8,149.9-196.9,230.4C4411.6,4668,3778.5,4791,3188,4744z"/><path d="M6255,2106.5c-344.5-55.9-693.5-190.1-939.6-366.9c-145.4-102.9-384.8-346.7-449.7-454.1c-35.8-62.6-47-64.9-297.5-89.5c-396-40.3-695.7-132-984.3-302c-196.9-114.1-476.5-402.7-561.5-581.6c-136.5-279.6-116.3-621.9,55.9-894.8c176.7-279.6,512.3-523.5,912.7-657.7c183.4-62.6,474.3-120.8,606.2-120.8c69.4,0,147.6-29.1,304.2-109.6c422.8-223.7,834.4-319.9,1351.2-319.9c364.6,2.2,662.2,51.5,966.4,163.3c190.1,69.3,208,71.6,577.2,76c800.9,9,1369.1,217,1780.7,655.5c170,179,275.2,375.8,311,579.4c87.3,503.3-306.5,1040.2-968.6,1319.9c-176.7,73.8-487.7,163.3-570.4,163.3c-29.1,0-80.5,49.2-145.4,140.9c-266.2,369.1-648.7,621.9-1134.2,747.2C6829.9,2115.5,6463,2137.8,6255,2106.5z M6991,1690.4c85-20.1,250.6-80.5,366.9-136.5c266.2-127.5,472-324.4,583.9-557c42.5-85,78.3-156.6,80.5-161.1c2.2-2.2,107.4-22.4,234.9-40.3c590.6-87.2,1017.9-328.8,1185.6-671.1c214.8-436.2-49.2-894.8-662.2-1138.7c-340-134.2-494.4-152.1-1324.3-138.7c-49.2,0-167.8-35.8-284.1-85c-322.1-136.5-559.3-174.5-1008.9-161.1c-286.3,9-427.3,22.4-568.2,58.2c-205.8,53.7-503.3,183.4-659.9,290.8c-89.5,62.6-116.3,69.4-266.2,69.4c-349,0-713.6,105.1-979.8,279.6c-561.5,375.8-487.7,1011.2,158.8,1326.6c304.2,149.9,698,223.7,1031.3,196.9l170-13.4l85,172.3C5425,1569.6,6196.8,1864.9,6991,1690.4z"/><path d="M4420.6-1969.4c-167.8-592.8-261.7-964.2-243.8-979.8c8.9-9,91.7-38,179-62.6l163.3-44.7l22.4,80.5c11.2,44.7,80.5,295.3,152.1,557l132,474.3l-172.3,44.7c-94,26.9-176.7,47-183.4,47C4460.8-1853.1,4440.7-1906.7,4420.6-1969.4z"/><path d="M8279.5-2002.9c-13.4-47-78.3-286.3-147.6-532.4c-67.1-246.1-123-458.6-123-469.8c0-13.4,80.5-44.7,179-71.6l179-47l22.4,82.8c11.2,44.7,76.1,281.9,145.4,527.9c67.1,246.1,123,458.6,123,474.3c0,22.4-107.4,62.6-295.3,107.4C8308.6-1917.9,8299.6-1922.4,8279.5-2002.9z"/><path d="M6366.8-2134.9c-85-281.9-281.9-1029-275.2-1049.2c13.4-29.1,324.4-111.8,346.7-91.7c6.7,8.9,80.5,257.3,161.1,550.3l149.9,536.9l-118.6,33.6C6413.8-2092.4,6382.5-2090.2,6366.8-2134.9z"/><path d="M4988.8-3674c-51.4-185.7-120.8-431.7-152.1-543.6c-31.3-114.1-51.5-212.5-44.7-219.2c22.4-22.4,333.3-105.1,346.8-91.7c15.6,15.6,295.3,1020.1,297.5,1064.8c0,24.6-51.4,49.2-176.7,82.8l-176.7,47L4988.8-3674z"/><path d="M7037.9-3372c-6.7-20.1-73.8-257.3-147.6-527.9c-73.8-270.7-138.7-503.3-145.4-519c-9-24.6,340-134.2,360.2-111.9c13.4,11.2,299.8,1046.9,299.8,1078.3c0,13.4-80.5,44.7-179,69.3C7064.8-3340.7,7046.9-3338.5,7037.9-3372z"/></g></g>
</svg>