<?xml version="1.0" encoding="utf-8"?>
<!-- Svg Vector Icons : http://www.sfont.cn -->
<!DOCTYPE svg PUBLIC "-//W3C//DTD SVG 1.1//EN" "http://www.w3.org/Graphics/SVG/1.1/DTD/svg11.dtd">
<svg version="1.1" xmlns="http://www.w3.org/2000/svg" xmlns:xlink="http://www.w3.org/1999/xlink" x="0px" y="0px" viewBox="0 0 1000 1000" enable-background="new 0 0 1000 1000" xml:space="preserve">
<metadata> Svg Vector Icons : http://www.sfont.cn </metadata>
<g fill="white"><g transform="translate(0.000000,511.000000) scale(0.100000,-0.100000)"><path d="M5471,4972.1c-1238.2-200.9-2410.5-905.6-3181.1-1910C1272.3,1735.1,1005.6-33.3,1591.8-1581.1C2224-3257.2,3781.7-4511.9,5533.6-4755.6c362.2-49.4,1070.2-46.1,1419.3,13.2c856.2,138.3,1761.8,533.5,1761.8,770.6c0,177.8-85.6,256.9-382,352.4C6975.9-3188.1,5968.3-2042.1,5698.2-616.2c-72.5,375.4-72.5,1047.2-3.3,1442.4C5945.2,2232.3,6916.6,3348.7,8303,3832.7c316.1,112,411.6,187.7,411.6,329.3c0,148.2-95.5,237.1-408.4,385.3c-362.2,171.2-714.6,286.5-1136.1,378.7C6748.7,5015,5889.2,5038,5471,4972.1z M6821.1,4415.6c335.9-49.4,839.7-181.1,839.7-214c0-13.2-56-49.4-121.9-82.3c-237.1-112-750.8-474.2-1007.7-711.3c-457.7-424.8-869.4-1011-1109.8-1587.3c-408.3-978-457.7-2038.4-141.6-3036.2c332.6-1053.8,1116.4-2028.5,2068-2571.9c141.6-79,276.6-154.8,293.1-161.3c69.1-29.7-65.9-85.6-424.8-174.6c-332.6-85.6-411.6-92.2-1004.4-92.2c-503.8,0-701.4,13.2-922.1,62.6c-579.6,125.1-1182.2,388.6-1646.5,714.6c-543.4,382-1119.6,1076.8-1396.3,1679.5c-671.8,1475.3-497.3,3217.3,454.4,4498.3c382,513.7,1030.7,1043.9,1603.7,1307.3C5075.8,4402.5,6011.1,4537.5,6821.1,4415.6z"/></g></g>
</svg>