<?xml version="1.0" encoding="utf-8"?>
<!-- Svg Vector Icons : http://www.sfont.cn -->
<!DOCTYPE svg PUBLIC "-//W3C//DTD SVG 1.1//EN" "http://www.w3.org/Graphics/SVG/1.1/DTD/svg11.dtd">
<svg version="1.1" xmlns="http://www.w3.org/2000/svg" xmlns:xlink="http://www.w3.org/1999/xlink" x="0px" y="0px" viewBox="0 0 1000 1000" enable-background="new 0 0 1000 1000" xml:space="preserve">
<metadata> Svg Vector Icons : http://www.sfont.cn </metadata>
<g fill="white"><g transform="translate(0.000000,511.000000) scale(0.100000,-0.100000)"><path d="M3562,4780.5c-804.2-61.3-1528.8-402.1-2124-997.3c-486.1-486.1-797.4-1056.3-945-1728.7c-61.3-270.3-61.3-1015.4-2.3-1292.6c218.1-1020,876.9-1890,1787.8-2360.3c309-159,577-256.7,892.8-324.9c333.9-70.4,970-70.4,1301.7,0c397.5,86.3,897.3,279.4,1026.8,397.5c34.1,31.8,50,72.7,50,129.5c0,111.3-56.8,159-284,238.5c-393,136.3-706.5,324.8-995,599.7C3836.9-146.8,3566.6,364.3,3468.9,955c-52.2,322.6-34.1,806.4,43.2,1104c190.8,736,608.8,1301.7,1231.3,1667.4c204.5,118.1,583.8,284,656.5,284c63.6,0,149.9,104.5,149.9,181.7c0,113.6-36.3,154.5-222.6,247.6C4795.5,4705.5,4166.3,4828.2,3562,4780.5z M4327.6,4362.5c106.8-18.2,270.3-56.8,361.2-86.3l168.1-52.3l-170.4-88.6c-395.3-209-817.8-590.6-1088.1-985.9c-354.4-517.9-517.9-1017.7-540.7-1637.9c-18.2-529.3,70.4-958.7,290.8-1424.4c268.1-565.6,783.7-1110.8,1331.2-1408.4c172.6-93.1,174.9-95.4,113.6-118.1c-411.2-156.8-1060.9-199.9-1558.4-104.5C2055.9-1316.7,1142.7-421.7,881.4,761.9c-59.1,268.1-70.4,851.9-25,1138.1c156.7,942.8,726.9,1735.6,1553.8,2162.6c249.9,129.5,615.6,254.4,870.1,297.6C3539.3,4403.4,4086.8,4405.7,4327.6,4362.5z"/><path d="M7071.7,1875c-390.7-54.5-767.8-265.8-954.1-538.4c-75-111.3-86.3-115.8-204.5-131.8c-383.9-45.4-704.2-190.8-945-431.6c-209-206.7-268.1-347.6-254.4-602c9.1-134,25-197.6,75-293c95.4-174.9,315.8-370.3,540.6-477.1c281.7-136.3,433.9-170.4,779.2-172.7c265.8-2.3,304.4-9.1,368-52.2c118.1-86.3,393-206.7,583.8-256.7c261.3-70.4,720.1-72.7,990.4-4.6c106.8,27.3,254.4,75,327.1,106.8c72.7,34.1,197.6,70.4,281.7,81.8c540.7,84.1,1004.1,365.8,1174.4,715.6c59.1,120.4,65.9,161.3,65.9,340.8c0,177.2-9.1,220.4-61.3,318c-186.3,358.9-620.2,627-1140.4,708.8l-234,38.6l-63.6,97.7c-131.7,209-481.6,440.7-772.4,513.4C7448.8,1881.8,7226.2,1897.7,7071.7,1875z M7621.5,1443.4c270.3-84.1,431.6-227.2,531.6-474.8l52.3-127.2l245.3-13.6c290.8-18.2,488.4-63.6,679.2-156.7c520.2-252.2,527-776.9,15.9-1033.6c-168.1-81.8-304.4-120.4-540.7-149.9c-140.8-15.9-247.6-45.4-340.8-90.9c-224.9-109-399.8-143.1-704.2-143.1c-404.4,2.3-679.2,88.6-933.7,297.6l-122.7,100l-193.1-29.6c-468-65.9-976.8,93.2-1147.2,361.2c-165.8,261.3-31.8,574.7,304.4,722.4c177.2,77.2,320.3,106.8,588.4,122.7l245.3,13.6l52.3,127.2c99.9,245.3,243.1,377.1,511.1,468C7067.2,1504.7,7410.2,1509.3,7621.5,1443.4z"/><path d="M1731-2257.2c-202.2-63.6-354.4-161.3-492.9-309c-124.9-134-136.3-138.6-293.1-168.1c-315.8-56.8-633.8-261.2-772.4-495.2c-36.3-61.3-61.3-147.7-68.2-234c-11.4-120.4-4.5-152.2,59.1-281.7c43.2-90.9,113.6-184,179.5-243.1c213.5-188.6,608.8-327.1,901.9-313.5c120.4,6.8,159-4.5,329.4-88.6c424.8-209,829.2-236.3,1260.8-81.8c86.3,31.8,252.2,77.2,363.5,100c677,145.4,1060.9,640.6,838.2,1085.9c-122.7,247.6-463.4,470.2-831.4,545.2c-188.5,38.6-202.2,45.4-295.3,152.2c-124.9,143.1-327.1,272.6-513.4,329.4C2210.4-2200.4,1908.2-2200.4,1731-2257.2z M2344.4-2636.6c156.7-45.4,299.9-186.3,352.1-343l38.6-113.6l243.1-11.4c261.2-13.6,408.9-52.2,554.3-147.7c179.5-120.4,231.7-324.9,120.4-488.4c-93.1-136.3-413.5-268-654.2-268c-36.3,0-120.4-25-184-56.8c-406.6-199.9-935.9-138.6-1240.3,138.6c-54.5,50-63.6,52.3-211.3,27.3c-181.7-29.5-463.4,2.3-613.4,68.1c-190.8,84.1-295.3,252.2-254.4,406.6c20.4,88.6,170.4,222.6,299.9,268.1c63.6,22.7,206.7,43.2,352.1,50l240.8,11.4l29.5,102.2c40.9,147.7,184,295.3,338.5,347.6C1912.8-2591.1,2180.8-2586.6,2344.4-2636.6z"/></g></g>
</svg>