<?xml version="1.0" encoding="utf-8"?>
<!-- Svg Vector Icons : http://www.sfont.cn -->
<!DOCTYPE svg PUBLIC "-//W3C//DTD SVG 1.1//EN" "http://www.w3.org/Graphics/SVG/1.1/DTD/svg11.dtd">
<svg version="1.1" xmlns="http://www.w3.org/2000/svg" xmlns:xlink="http://www.w3.org/1999/xlink" x="0px" y="0px" viewBox="0 0 1000 1000" enable-background="new 0 0 1000 1000" xml:space="preserve">
<metadata> Svg Vector Icons : http://www.sfont.cn </metadata>
<g><g transform="translate(0.000000,511.000000) scale(0.100000,-0.100000)"><path d="M4725.8,4771.7c-804.6-131.4-1486-543.9-1863.6-1130.9l-94.4-145.7l-283.2-12.3c-790.2-32.8-1514.7-324.3-1958-790.2C-3,2140.5-42,1469.3,423.9,896.7C822,408.2,1597.9,51.1,2365.5,5.9l225.8-12.3l205.2-119c351-203.2,769.7-351,1221.2-431c295.6-53.4,872.3-73.9,1167.9-41.1c412.5,45.2,882.6,166.2,1202.7,309.9c121.1,53.4,139.6,57.5,270.9,39c75.9-8.2,268.9-16.4,426.9-18.5c459.8,0,792.2,51.3,1215.1,186.8C9348,258.4,9998.6,1015.7,9887.8,1769c-108.8,753.2-857.9,1387.5-1929.3,1629.6c-119,26.7-240.1,49.3-270.9,49.3c-45.2,0-67.7,18.5-110.8,88.3c-387.9,628.1-991.4,1040.6-1769.2,1204.8C5540.6,4798.4,4986.5,4812.8,4725.8,4771.7z M5772.6,4396.1c714.2-153.9,1258.2-543.9,1525-1091.9c41.1-84.2,84.2-160.1,96.5-168.3c10.3-8.2,53.4-16.4,94.4-16.4c229.9,0,788.2-143.7,1077.5-277.1c338.7-153.9,691.7-447.4,833.3-687.6c203.2-348.9,197-759.4-16.4-1112.4c-262.7-431-884.6-782-1619.4-911.3C7500.7,86,6965,69.6,6688,100.3L6460.1,127L6218,22.4c-240.1-102.6-572.6-201.2-866.1-252.5c-207.3-36.9-1005.7-34.9-1210.9,0c-537.7,96.5-952.3,252.5-1317.7,500.8c-114.9,75.9-121.1,78-305.8,78c-234,0-560.3,47.2-794.3,114.9C914.4,697.6,405.4,1237.4,452.6,1808c51.3,607.5,638.3,1096,1537.3,1274.6c188.8,36.9,303.8,45.1,615.7,47.2h381.7l75.9,153.9c307.9,621.9,942.1,1040.6,1744.6,1147.3C5031.6,4461.8,5557.1,4441.3,5772.6,4396.1z"/><path d="M8227.3-1381.5c-104.7-385.9-197-712.2-201.1-724.5c-6.2-18.5,318.1-123.1,332.5-106.7c4.1,4.1,90.3,316.1,192.9,693.7c104.7,377.7,192.9,701.9,199.1,720.4c6.2,24.6-24.6,43.1-143.7,75.9c-84.2,24.6-160.1,45.2-170.4,45.2C8428.5-677.5,8334-993.6,8227.3-1381.5z"/><path d="M2601.5-1675c-377.7-468-689.6-860-693.7-870.3c-4.1-12.3,289.4-22.6,749.1-24.6l757.4-6.2l-704-888.7c-387.9-488.5-704-894.9-704-905.1c0-20.5,236-207.3,260.7-205.2c16.4,0,1857.5,2323.4,1869.8,2358.3c4.1,12.3-289.4,22.6-745,24.6l-751.2,6.2l463.9,572.6c254.5,314,461.8,576.7,459.8,585c0,18.5-236,207.3-258.6,205.2C3297.3-823.3,2979.2-1207.1,2601.5-1675z"/><path d="M6439.6-893.1c0-8.2-88.3-332.5-195-722.5c-108.8-390-192.9-712.2-188.8-718.4c24.6-22.6,307.9-90.3,322.2-73.9c18.5,18.5,390,1358.7,390,1405.9c0,20.5-43.1,43.1-127.3,65.7c-71.8,20.5-145.7,41-164.2,45.2C6456-884.8,6439.6-886.9,6439.6-893.1z"/><path d="M5074.7-2627.4c-4.1-8.2-92.4-318.1-195-689.6c-102.6-371.5-190.9-691.7-197-710.2c-8.2-28.7,16.4-43.1,131.4-75.9c78-24.6,156-43.1,172.4-43.1c20.5,0,80,190.9,221.7,704c104.7,385.9,190.9,710.2,192.9,720.4C5403.1-2697.2,5087.1-2606.9,5074.7-2627.4z"/><path d="M6993.8-2621.2c0-6.2-88.3-328.4-195-720.4c-108.8-390-188.8-714.3-180.6-722.5c32.8-28.8,297.6-86.2,314-69.8c18.5,20.5,390,1360.8,390,1408c0,18.5-57.5,43.1-164.2,71.8C7067.7-2629.4,6993.8-2615.1,6993.8-2621.2z"/></g></g>
</svg>