<?xml version="1.0" encoding="utf-8"?>
<!-- Svg Vector Icons : http://www.sfont.cn -->
<!DOCTYPE svg PUBLIC "-//W3C//DTD SVG 1.1//EN" "http://www.w3.org/Graphics/SVG/1.1/DTD/svg11.dtd">
<svg version="1.1" xmlns="http://www.w3.org/2000/svg" xmlns:xlink="http://www.w3.org/1999/xlink" x="0px" y="0px" viewBox="0 0 1000 1000" enable-background="new 0 0 1000 1000" xml:space="preserve">
<metadata> Svg Vector Icons : http://www.sfont.cn </metadata>
<g fill="white"><g transform="translate(0.000000,511.000000) scale(0.100000,-0.100000)"><path d="M4814.9,4488.1c-961.8-141.8-1736.6-651.5-2077.8-1372.9l-71.9-150l-230.2-12.3C1298.4,2889.1,332.5,2280.8,131.1,1506C90,1345.7,90,1070.3,129,914.1C311.9,209.2,1140.2-370.4,2163.7-512.2c240.5-34.9,746-30.8,998.8,8.2c166.5,24.7,234.3,26.7,277.5,10.3c113-43.2,452.1-121.3,655.6-152.1c614.5-92.5,1286.6-47.3,1874.3,123.3l176.7,51.4l248.7-43.1c1518.8-263.1,3091,384.3,3446.5,1418.1c61.7,180.8,78.1,515.8,30.8,700.8c-180.8,715.2-984.4,1321.5-2018.2,1516.7c-152.1,30.8-232.2,55.5-250.7,80.1c-14.4,18.5-69.9,104.8-125.4,189.1c-121.2,185-429.5,487.1-628.9,620.7c-302.1,197.3-688.5,357.6-1058.4,437.7C5641,4481.9,4958.7,4508.6,4814.9,4488.1z M5636.9,4120.2c774.8-127.4,1352.3-509.7,1650.3-1093.4l96.6-191.1l92.5-10.3c826.2-106.9,1356.4-330.9,1740.8-737.8c248.7-261,347.3-509.7,330.9-832.4c-20.5-372-199.4-670-573.4-947.4c-628.9-468.6-1685.3-649.4-2645-452.1l-195.2,39l-228.1-69.9c-741.9-224-1621.5-222-2334.7,8.2l-176.7,57.6l-224-39.1c-330.9-57.5-955.7-43.2-1263.9,30.8c-275.4,65.8-443.9,123.3-637.1,219.9C868.9,303.7,585.3,603.8,484.6,930.5c-51.4,172.6-45.2,460.4,14.4,610.4c197.3,493.2,731.7,857,1481.8,1007c133.6,28.8,330.9,47.3,577.5,55.5l374,12.3l43.2,145.9c213.7,704.9,859.1,1208.5,1736.6,1356.4C4936.1,4157.2,5408.8,4157.2,5636.9,4120.2z"/><path d="M2790.5-1418.5v-308.3h-308.3h-308.3v-174.7v-174.7h308.3h308.3v-308.3v-308.3h174.7h174.7v308.3v308.3h308.3h308.3v174.7v174.7h-308.3h-308.3v308.3v308.3h-174.7h-174.7V-1418.5z"/><path d="M4901.2-1122.6c-8.2-8.2-14.4-148-14.4-310.3v-293.9h-298h-298v-174.7v-174.7h298h298v-308.3v-308.3h185h185v308.3v308.3h298h298v174.7v174.7h-298h-295.9l-6.2,304.2l-6.2,302.1l-164.4,6.2C4989.6-1112.3,4909.4-1114.4,4901.2-1122.6z"/><path d="M7003.6-1418.5v-308.3h-308.3h-308.3v-174.7v-174.7h308.3h308.3v-308.3v-308.3h174.7H7353v308.3v308.3h308.3h308.3v174.7v174.7h-308.3H7353v308.3v308.3h-174.7h-174.7V-1418.5z"/><path d="M3838.6-3001v-308.3h-308.3h-308.3V-3484v-174.7h308.3h308.3V-3967v-308.3h174.7H4188v308.3v308.3h308.3h308.3v174.7v174.7h-308.3H4188v308.3v308.3h-174.7h-174.7V-3001z"/><path d="M5955.5-3001v-308.3h-308.3h-308.3V-3484v-174.7h308.3h308.3V-3967v-308.3h174.7h174.7v308.3v308.3h308.3h308.3v174.7v174.7h-308.3h-308.3v308.3v308.3h-174.7h-174.7V-3001z"/></g></g>
</svg>