<?xml version="1.0" encoding="utf-8"?>
<!-- Svg Vector Icons : http://www.sfont.cn -->
<!DOCTYPE svg PUBLIC "-//W3C//DTD SVG 1.1//EN" "http://www.w3.org/Graphics/SVG/1.1/DTD/svg11.dtd">
<svg version="1.1" xmlns="http://www.w3.org/2000/svg" xmlns:xlink="http://www.w3.org/1999/xlink" x="0px" y="0px" viewBox="0 0 1000 1000" enable-background="new 0 0 1000 1000" xml:space="preserve">
<metadata> Svg Vector Icons : http://www.sfont.cn </metadata>
<g fill="white"><g transform="translate(0.000000,511.000000) scale(0.100000,-0.100000)"><path d="M4814.5,4480.9c-957.3-139.7-1748.2-661.5-2076.9-1374.3l-67.8-147.9l-232.1-12.3c-562.9-30.8-1121.6-207.5-1557.1-488.9c-74-47.2-226-180.8-339-293.8c-170.5-170.5-221.9-238.3-293.8-382.1C141.1,1563.9,100,1405.7,100,1206.5c2.1-821.7,832-1526.3,2021.4-1715.3c265-43.2,760.1-43.2,1041.5,0c166.4,24.6,232.1,26.7,277.3,10.3c115-45.2,451.9-121.2,665.6-152C4730.3-741,5379.4-697.8,5969-527.3l176.7,51.4l248.6-43.1C7967.8-792.3,9582.4-89.8,9868,990.8c39,147.9,43.1,454,8.2,595.7c-172.6,712.8-959.3,1314.7-1988.5,1522.2c-141.7,28.8-265,57.5-271.1,65.7c-6.2,8.2-63.7,92.4-125.3,189c-345.1,525.9-955.2,912.1-1700.9,1078.5C5640.3,4474.8,4964.5,4501.5,4814.5,4480.9z M5636.2,4113.2c527.9-84.2,949.1-281.4,1290.1-603.9c150-141.7,336.9-404.7,406.7-575.2c24.7-57.5,55.5-104.8,67.8-104.8c78-2.1,470.4-67.8,622.4-104.8c669.7-164.3,1191.5-509.4,1407.2-932.6c88.3-170.5,119.1-299.9,119.1-495.1c0-293.8-102.7-532.1-332.8-780.6c-579.3-618.3-1779-893.6-2892.4-663.5l-197.2,39L6006-149.3C5268.5-404.1,4319.4-412.3,3569.6-172c-176.7,57.5-184.9,57.5-310.2,28.8c-186.9-41.1-809.4-57.5-1057.9-26.7c-394.4,49.3-768.3,168.5-1064.1,341C929.9,292.3,646.4,571.7,566.3,736c-336.9,680,78.1,1372.2,1016.9,1700.9c289.6,100.7,577.2,147.9,986,160.2l363.6,12.3l43.1,143.8c215.7,708.7,879.2,1222.3,1756.4,1359.9C4960.4,4150.2,5414.4,4150.2,5636.2,4113.2z"/><path d="M3838.7-1423v-308.1h-308.1h-308.1v-174.6v-174.6h308.1h308.1v-308.1v-308.1h174.6H4188v308.1v308.1h308.1h308.1v174.6v174.6h-308.1H4188v308.1v308.1h-174.6h-174.6V-1423z"/><path d="M5954.6-1423v-308.1h-308.1h-308.1v-174.6v-174.6h308.1h308.1v-308.1v-308.1h174.6h174.6v308.1v308.1H6612h308.1v174.6v174.6H6612h-308.1v308.1v308.1h-174.6h-174.6V-1423z"/><path d="M4886.4-3004.8v-308.1h-297.9h-297.9v-174.6v-174.6h297.9h295.8l6.2-302l6.2-304h174.6h174.6l6.2,304l6.2,302H5554h297.9v174.6v174.6H5554h-297.9v308.1v308.1h-184.9h-184.9V-3004.8z"/></g></g>
</svg>