<?xml version="1.0" encoding="utf-8"?>
<!-- Svg Vector Icons : http://www.sfont.cn -->
<!DOCTYPE svg PUBLIC "-//W3C//DTD SVG 1.1//EN" "http://www.w3.org/Graphics/SVG/1.1/DTD/svg11.dtd">
<svg version="1.1" xmlns="http://www.w3.org/2000/svg" xmlns:xlink="http://www.w3.org/1999/xlink" x="0px" y="0px" viewBox="0 0 1000 1000" enable-background="new 0 0 1000 1000" xml:space="preserve">
<metadata> Svg Vector Icons : http://www.sfont.cn </metadata>
<g fill="white"><g transform="translate(0.000000,511.000000) scale(0.100000,-0.100000)"><path d="M4701.7,4471.9c-906.1-162.3-1635.5-661.6-1962.2-1343.8l-80.1-168.5h-135.6c-166.4,0-523.9-47.3-700.6-92.5c-819.8-207.5-1436.2-667.8-1656.1-1236.9c-41.1-111-55.5-187-63.7-369.8c-8.2-207.5-4.1-248.6,43.1-400.7c187-597.9,811.6-1089,1649.9-1298.5c111-28.8,277.4-61.6,367.8-74c234.2-30.8,766.4-26.7,998.6,8.2l197.3,30.8l203.4-57.5c747.9-215.7,1629.3-211.7,2397.8,8.2l182.9,53.4l248.6-43.2c1179.4-203.4,2395.8,125.3,3071.7,830.1c289.7,304.1,435.6,634.9,435.6,988.3c-2,392.4-158.2,729.4-495.2,1060.2c-406.8,400.7-994.5,667.8-1723.9,786.9c-59.6,10.3-80.1,28.8-123.3,106.9c-228.1,433.5-762.3,858.8-1335.5,1066.4c-330.8,119.2-554.8,156.2-976,164.4C4977,4496.6,4808.6,4490.4,4701.7,4471.9z M5636.6,4120.6c774.6-127.4,1364.3-521.9,1656.1-1109.5l86.3-172.6l94.5-12.3c575.3-74,980.1-199.3,1341.7-413c246.6-145.9,521.9-423.3,618.4-624.6c90.4-189,115.1-295.9,117.1-489c0-283.5-154.1-612.3-394.5-838.3c-610.2-575.3-1799.9-828-2837.5-604.1l-182.9,41.1l-228.1-69.8C5519.5-290.8,5203-333.9,4753.1-333.9c-452,0-700.6,32.9-1082.8,141.8c-139.7,39-260.9,74-273.3,76c-10.3,2.1-129.4-14.4-263-34.9c-318.5-51.4-912.3-37-1199.9,26.7C1017.7,77,448.6,590.7,448.6,1211.2c0,275.3,92.5,495.2,304.1,723.2c211.6,230.1,515.7,410.9,887.6,528c295.9,94.5,528.1,129.4,926.7,141.8l363.7,12.3l43.1,150c162.3,560.9,647.2,1023.2,1302.7,1245.1C4670.9,4143.2,5223.6,4188.4,5636.6,4120.6z"/><path d="M1743-1416.7v-308.2h-308.2h-308.2v-174.6v-174.6h308.2H1743v-308.2v-308.2h174.6h174.6v308.2v308.2h308.2h308.2v174.6v174.6h-308.2h-308.2v308.2v308.2h-174.6H1743V-1416.7z"/><path d="M3838.8-1416.7v-308.2h-308.2h-308.2v-174.6v-174.6h308.2h308.2v-308.2v-308.2h174.6h174.6v308.2v308.2h308.2h308.2v174.6v174.6h-308.2h-308.2v308.2v308.2h-174.6h-174.6V-1416.7z"/><path d="M5955-1416.7v-308.2h-308.2h-308.2v-174.6v-174.6h308.2H5955v-308.2v-308.2h174.6h174.6v308.2v308.2h308.2h308.2v174.6v174.6h-308.2h-308.2v308.2v308.2h-174.6H5955V-1416.7z"/><path d="M8050.8-1416.7v-308.2h-308.2h-308.2v-174.6v-174.6h308.2h308.2v-308.2v-308.2h174.6h174.6v308.2v308.2h308.2h308.2v174.6v174.6h-308.2h-308.2v308.2v308.2h-174.6h-174.6V-1416.7z"/><path d="M2790.9-2998.8V-3307h-308.2h-308.2v-174.6v-174.6h308.2h308.2v-308.2v-308.2h174.6h174.6v308.2v308.2h308.2h308.2v174.6v174.6h-308.2h-308.2v308.2v308.2h-174.6h-174.6V-2998.8z"/><path d="M4886.6-2998.8V-3307h-297.9h-297.9v-174.6v-174.6h297.9h295.9l6.2-302l6.2-304.1h174.6h174.6l6.2,304.1l6.2,302h295.9h297.9v174.6v174.6h-297.9h-297.9v308.2v308.2h-184.9h-184.9V-2998.8z"/><path d="M7002.9-2998.8V-3307h-308.2h-308.2v-174.6v-174.6h308.2h308.2v-308.2v-308.2h174.6h174.6v308.2v308.2h308.2h308.2v174.6v174.6h-308.2h-308.2v308.2v308.2h-174.6h-174.6V-2998.8z"/></g></g>
</svg>