<?xml version="1.0" encoding="utf-8"?>
<!-- Svg Vector Icons : http://www.sfont.cn -->
<!DOCTYPE svg PUBLIC "-//W3C//DTD SVG 1.1//EN" "http://www.w3.org/Graphics/SVG/1.1/DTD/svg11.dtd">
<svg version="1.1" xmlns="http://www.w3.org/2000/svg" xmlns:xlink="http://www.w3.org/1999/xlink" x="0px" y="0px" viewBox="0 0 1000 1000" enable-background="new 0 0 1000 1000" xml:space="preserve">
<metadata> Svg Vector Icons : http://www.sfont.cn </metadata>
<g fill="white"><g transform="translate(0.000000,511.000000) scale(0.100000,-0.100000)"><path d="M7172.2,4986.9c-330.9-56.6-690.1-202.5-960.1-389.7c-213.3-148-4108-4044.9-4238.6-4243c-293.9-439.8-439.8-981.8-407.1-1515.2l15.2-237.3l-627-633.5c-687.9-692.3-729.3-746.7-812-1071.1c-84.9-330.9-41.4-722.8,113.2-1016.7c102.3-198.1,337.4-424.5,539.9-522.5c250.4-121.9,400.6-152.4,696.6-141.5c285.2,13.1,450.6,58.8,664,187.2c87.1,52.2,328.7,272.1,735.8,677.1l603,598.7l387.5,4.3c341.8,2.2,409.3,8.7,596.5,58.8c278.7,74,524.6,182.9,753.2,333.1c161.1,104.5,485.5,420.2,2122.6,2052.9C8593.8,365.2,9340.5,1124.9,9429.8,1242.5c320,424.5,470.2,881.7,470.2,1436.8c0,413.6-69.7,720.6-246,1075.4c-320,642.2-931.8,1097.2-1650.2,1221.3C7812.3,5010.9,7346.4,5015.2,7172.2,4986.9z M8021.3,4614.6c198.1-45.7,481.1-169.8,648.7-283c150.2-102.3,409.3-357,520.3-511.6c126.3-176.3,259.1-459.4,315.7-672.7c37-135,47.9-239.5,47.9-457.2c2.2-313.5-28.3-470.2-137.1-744.5c-154.6-387.5-150.2-383.1-2259.7-2490.5C5942.2-1757.4,5149.8-2534.6,5058.4-2597.7c-176.3-124.1-457.2-256.9-648.7-307c-211.2-54.4-600.8-65.3-838.1-26.1l-195.9,34.8l-707.5-703.2c-635.7-629.1-720.6-707.5-842.5-762c-76.2-32.7-195.9-69.6-269.9-80.5c-389.7-63.1-829.4,187.2-1023.2,579.1c-71.8,145.9-74,161.1-74,402.8c0,237.3,4.4,256.9,71.8,402.7c65.3,139.3,135,213.3,768.5,851.2l696.6,696.6l-34.8,193.8c-84.9,494.2,15.2,1003.6,280.8,1415C2335,243.2,6153.4,4090,6373.3,4259.8c259.1,202.5,640,359.2,962.2,400.6C7538,4684.3,7794.9,4666.9,8021.3,4614.6z"/><path d="M6271,3539.2c-102.3-100.1-78.4-165.5,132.8-381c102.3-106.7,209-195.9,237.3-200.3c80.5-15.2,174.2,34.8,206.8,111c39.2,98,4.4,165.5-195.9,359.2c-148,145.9-178.5,165.5-248.2,165.5C6347.1,3593.6,6308,3578.4,6271,3539.2z"/><path d="M5095.4,2363.6c-39.2-37-54.4-76.2-54.4-132.8c0-67.5,19.6-100.1,158.9-241.6c84.9-89.2,185-178.5,219.9-195.9c121.9-63.1,252.5,21.8,252.5,163.3c0,76.2-17.4,100.1-193.7,272.1C5260.8,2442,5195.5,2466,5095.4,2363.6z"/><path d="M7947.2,1956.5c-69.7-37-98-84.9-98-167.6c0-67.5,23.9-100.1,189.4-267.8c169.8-169.8,200.3-191.6,269.9-191.6c52.3,0,91.4,15.2,121.9,50.1c104.5,115.4,80.5,187.2-119.7,391.9C8112.7,1971.8,8043,2008.8,7947.2,1956.5z"/><path d="M6401.6,1725.8c-26.1-2.2-1193-1153.8-2597.1-2558C1745-2891.6,1250.8-3396.7,1239.9-3453.3c-10.9-58.8-2.2-80.5,52.2-137.1c47.9-45.7,87.1-65.3,139.3-65.3c65.3,0,261.2,189.4,2634.2,2564.5c2272.8,2272.8,2564.5,2571,2564.5,2627.6C6630.2,1656.1,6521.3,1745.4,6401.6,1725.8z"/><path d="M3945.9,1218.5c-52.3-30.5-98-139.3-84.9-204.6c13.1-71.8,378.8-424.5,437.6-424.5c65.3,0,167.6,56.6,185,98c6.5,19.6,13.1,67.5,13.1,104.5c0,54.4-32.7,100.1-191.6,259.1C4104.9,1251.2,4048.3,1277.3,3945.9,1218.5z"/><path d="M6732.5,759.2c-19.6-15.2-45.7-56.6-56.6-89.2c-34.8-91.4,13.1-178.5,200.3-357C7022,171.4,7048.1,154,7124.3,154c108.8,0,180.7,69.7,180.7,174.2c0,65.3-26.1,100.1-189.4,265.6c-169.8,169.8-200.3,191.6-267.8,191.6C6804.3,785.3,6752.1,772.2,6732.5,759.2z"/><path d="M2739.9-2.8c-106.7-121.9-76.2-206.8,154.6-424.5c141.5-135,176.3-158.9,241.6-158.9c106.7,0,185,78.4,185,187.2c0,71.8-19.6,100.1-182.9,261.2C2972.8,29.9,2948.9,45.1,2870.5,45.1C2809.6,45.1,2772.5,32.1,2739.9-2.8z"/><path d="M5561.3-412c-50.1-28.3-91.4-141.5-76.2-200.3c6.5-28.3,95.8-132.8,195.9-232.9c165.4-165.5,195.9-185,265.6-185c100.1,0,182.9,87.1,182.9,187.2c0,58.8-32.7,102.3-191.6,261.3c-167.6,167.6-202.5,191.6-267.8,191.6C5628.7-390.3,5580.8-401.2,5561.3-412z"/><path d="M4357.4-1622.4c-39.2-39.2-56.6-80.5-56.6-130.6c0-63.1,26.1-102.3,163.3-246c91.4-93.6,193.8-182.9,228.6-198.1c89.3-37,189.4,4.4,232.9,100.2c50.1,102.3,13.1,172-191.6,367.9c-143.7,137.1-182.9,163.3-246,163.3C4437.9-1565.8,4396.6-1583.3,4357.4-1622.4z"/></g></g>
</svg>