<?xml version="1.0" encoding="utf-8"?>
<!-- Svg Vector Icons : http://www.sfont.cn -->
<!DOCTYPE svg PUBLIC "-//W3C//DTD SVG 1.1//EN" "http://www.w3.org/Graphics/SVG/1.1/DTD/svg11.dtd">
<svg version="1.1" xmlns="http://www.w3.org/2000/svg" xmlns:xlink="http://www.w3.org/1999/xlink" x="0px" y="0px" viewBox="0 0 1000 1000" enable-background="new 0 0 1000 1000" xml:space="preserve">
<metadata> Svg Vector Icons : http://www.sfont.cn </metadata>
<g fill="white"><g transform="translate(0.000000,511.000000) scale(0.100000,-0.100000)"><path d="M3587.3,2509.4C2621,1134.3,1824.8-4,1818.3-19.1c-8.6-23.7,200.1-28,1121.2-28c621.9,0,1131.9-4.3,1131.9-10.8c0-4.3-581-1071.7-1293.3-2367.1c-712.3-1297.6-1289-2362.8-1284.7-2365c2.1-4.3,1579.5,1392.3,3503.4,3105.3l3496.9,3113.9l6.4,133.4l6.5,133.4l-1228.8,4.3l-1228.8,6.5l1095.3,1594.6C7747,4177.2,8257,4921.8,8278.5,4951.9l36.6,58.1H6830.2H5345.4L3587.3,2509.4z M7594.2,4616.2c-6.5-15.1-510-755.3-1121.2-1644.1c-611.1-888.7-1110.4-1622.6-1110.4-1629c0-6.5,553.1-15.1,1226.6-17.2l1228.8-6.4L5326-899.2C3955.2-2119.4,2831.9-3115.8,2827.6-3113.6c-2.2,2.1,415.3,772.6,931.8,1710.8C4273.7-462.4,4691.2,308,4686.9,314.4c-4.3,4.3-494.9,8.6-1088.9,8.6c-949,0-1078.1,4.3-1067.4,32.3c8.6,17.2,686.5,989.9,1510.7,2160.6l1495.6,2128.3H6572C7407,4644.2,7602.8,4639.9,7594.2,4616.2z"/></g></g>
</svg>