<?xml version="1.0" encoding="utf-8"?>
<!-- Svg Vector Icons : http://www.sfont.cn -->
<!DOCTYPE svg PUBLIC "-//W3C//DTD SVG 1.1//EN" "http://www.w3.org/Graphics/SVG/1.1/DTD/svg11.dtd">
<svg version="1.1" xmlns="http://www.w3.org/2000/svg" xmlns:xlink="http://www.w3.org/1999/xlink" x="0px" y="0px" viewBox="0 0 1000 1000" enable-background="new 0 0 1000 1000" xml:space="preserve">
<metadata> Svg Vector Icons : http://www.sfont.cn </metadata>
<g fill="white"><g transform="translate(0.000000,511.000000) scale(0.100000,-0.100000)"><path d="M4852.7,4983.3c-52.3-50.1-54.5-63.2-54.5-366.3v-314l-67.6-15.3c-37.1-6.5-106.8-13.1-154.8-13.1c-150.4,0-536.3-65.4-832.9-139.5c-1288.5-327-2459.4-1188.3-3163.6-2326.4C439.8,1582.1,243.6,1196.2,152,969.4c-56.7-146.1-61-176.6-41.4-239.8c28.3-87.2,76.3-117.7,178.8-117.7c56.7,0,104.6,28.3,224.6,130.8c172.2,148.3,390.3,263.8,599.6,318.3c172.2,45.8,510.2,50.1,675.9,10.9c189.7-45.8,455.7-183.1,625.7-327c198.4-167.9,261.6-174.4,409.9-45.8c569.1,492.7,1188.2,529.8,1831.4,106.8l141.7-93.8v-2204.3c0-2441.9-6.5-2313.3,146.1-2627.2c152.6-314,488.4-575.6,854.7-667.2c204.9-52.3,510.2-32.7,721.7,41.4c512.4,181,835,623.6,865.6,1186.1c13.1,215.8,10.9,222.4-43.6,276.9c-76.3,76.3-191.9,76.3-266,2.2c-48-45.8-54.5-71.9-54.5-200.6c0-396.8-202.8-726-545.1-887.4c-130.8-63.2-159.2-67.6-381.6-67.6c-224.6,0-248.5,4.4-388.1,69.8c-194.1,91.6-366.3,263.8-457.9,457.9l-69.8,148.3l-6.5,2228.2l-4.4,2230.4L5304,799.4c157,117.7,399,235.5,553.8,272.5c157,34.9,433.9,30.5,597.4-10.9c202.8-52.3,412.1-154.8,641-311.8c252.9-174.4,285.6-176.6,479.7-21.8c285.6,226.8,490.6,322.7,776.2,364.1c344.5,48,752.2-82.8,1144.6-368.5c115.5-85,170-111.2,231.1-111.2c98.1,0,172.3,71.9,172.3,172.2c0,87.2-117.7,375-276.9,678.1c-693.3,1321.3-1938.3,2313.3-3355.4,2673c-314,78.5-684.6,139.5-854.7,139.5c-58.9,0-137.4,6.5-174.4,13.1l-67.6,13.1l-6.6,316.1c-6.5,316.1-6.5,316.1-67.6,368.5C5016.2,5053.1,4920.3,5053.1,4852.7,4983.3z M5713.9,3869.2c1480.4-218,2779.8-1122.8,3519-2452.8l78.5-143.9l-211.5,72c-575.6,196.2-1120.6,119.9-1613.4-222.4l-137.4-93.8l-95.9,65.4c-394.6,266-889.5,396.8-1299.4,348.8c-305.2-37.1-658.4-181-878.7-353.2l-80.7-65.4l-93.7,63.2c-259.5,178.8-614.8,314-928.8,351c-412.1,50.2-854.7-65.4-1207.9-316.1c-56.7-41.4-106.8-74.1-113.4-74.1c-6.5,0-56.7,32.7-113.4,74.1c-457.9,324.9-1157.7,416.4-1705,222.4c-52.3-19.6-98.1-34.9-102.5-34.9c-19.6,0,106.8,222.4,246.4,436.1c824.1,1247.1,2136.7,2034.2,3604,2158.5C4857,3928.1,5432.6,3910.6,5713.9,3869.2z"/></g></g>
</svg>