<?xml version="1.0" encoding="utf-8"?>
<!-- Svg Vector Icons : http://www.sfont.cn -->
<!DOCTYPE svg PUBLIC "-//W3C//DTD SVG 1.1//EN" "http://www.w3.org/Graphics/SVG/1.1/DTD/svg11.dtd">
<svg version="1.1" xmlns="http://www.w3.org/2000/svg" xmlns:xlink="http://www.w3.org/1999/xlink" x="0px" y="0px" viewBox="0 0 1000 1000" enable-background="new 0 0 1000 1000" xml:space="preserve">
<metadata> Svg Vector Icons : http://www.sfont.cn </metadata>
<g fill="white"><g transform="translate(0.000000,511.000000) scale(0.100000,-0.100000)"><path d="M4866,4968.6c-24-24-54.5-85-67.5-137.3c-222.2-875.8-531.6-1446.6-1533.8-2838.8C2452,864,2166.6,365.1,1944.4-306c-156.9-472.8-185.2-660.1-185.2-1252.7c2.2-588.2,26.2-760.4,176.5-1189.6c422.7-1213.5,1494.6-1969.5,2895.5-2037.1c1298.5-65.4,2468.4,555.6,3028.4,1607.9c444.5,836.6,503.3,1910.7,161.2,2926c-215.7,636.2-551.2,1207-1357.3,2318.1c-716.8,986.9-1028.3,1503.3-1265.8,2093.7c-95.9,239.7-165.6,457.5-207,642.7c-32.7,143.8-91.5,207-200.4,207C4937.9,5010,4892.1,4994.8,4866,4968.6z M5049,4018.7c69.7-198.3,309.4-681.9,470.6-952.1c213.5-363.8,383.5-616.6,915-1357.3c570.8-797.4,786.5-1132.9,997.9-1557.8c281-564.3,409.6-1034.9,431.4-1568.7c63.2-1586.1-795.2-2701.5-2281.1-2956.5c-283.2-50.1-921.6-50.1-1187.4,0c-466.2,85-947.7,283.2-1254.9,514.2c-496.7,376.9-834.4,943.4-971.7,1625.3c-54.5,278.9-56.6,1050.1,0,1326.8c100.2,494.5,366,1108.9,723.3,1668.9c93.7,148.1,383.5,564.3,638.3,925.9c522.9,732,695,984.8,897.6,1318.1c159,263.6,433.6,814.8,505.5,1015.3c26.1,76.3,54.5,130.7,63.2,122C5003.2,4134.2,5027.2,4079.7,5049,4018.7z"/></g></g>
</svg>