<?xml version="1.0" encoding="utf-8"?>
<!-- Svg Vector Icons : http://www.sfont.cn -->
<!DOCTYPE svg PUBLIC "-//W3C//DTD SVG 1.1//EN" "http://www.w3.org/Graphics/SVG/1.1/DTD/svg11.dtd">
<svg version="1.1" xmlns="http://www.w3.org/2000/svg" xmlns:xlink="http://www.w3.org/1999/xlink" x="0px" y="0px" viewBox="0 0 1000 1000" enable-background="new 0 0 1000 1000" xml:space="preserve">
<metadata> Svg Vector Icons : http://www.sfont.cn </metadata>
<g fill="white"><g transform="translate(0.000000,511.000000) scale(0.100000,-0.100000)"><path d="M4886.7,2810.9c-433.1-61.6-753.2-151.9-1038.5-295.5c-433.1-219.6-804.5-543.9-999.5-876.4l-75.9-129.3H2588c-892.8-4.1-1812.3-408.4-2218.7-977C104.5,161.2,32.7-236.9,164-624.9c71.8-209.4,162.1-348.9,359.2-558.3c424.9-449.5,1108.3-740.9,1859.5-794.3c221.7-16.4,229.9-18.5,390-114.9c548-328.4,1227.3-500.8,1964.2-502.9c560.3,0,1065.2,92.4,1543.4,283.2c242.2,98.5,246.3,98.5,390,80c203.2-24.6,890.7-4.1,1089.8,32.8c1007.7,190.9,1771.2,689.6,2040.1,1336.1c396.1,950.3-420.8,1958-1845.1,2282.3c-119,26.7-240.1,49.3-270.9,49.3c-39,0-67.7,16.4-90.3,57.5c-266.8,439.2-580.8,734.8-1028.3,964.6C6151,2704.2,5761,2800.6,5266.4,2813C5091.9,2817.1,4921.6,2815,4886.7,2810.9z M5734.3,2423c730.7-141.6,1323.8-568.5,1584.5-1139.1c28.8-61.6,59.5-119,67.7-125.2c10.3-8.2,84.2-18.5,164.2-26.7c330.4-30.8,722.5-137.5,1036.5-281.2C9393.8,479.3,9742.7-202.1,9445.1-824c-240.1-500.8-845.6-870.2-1678.9-1024.1c-240.1-45.2-814.8-61.6-1091.9-30.8l-227.8,24.6l-174.5-80c-451.5-209.3-952.3-312-1529.1-312c-728.6,0-1366.9,174.5-1884.1,511.1l-160.1,104.7h-201.1c-238.1,0-599.3,57.5-839.4,133.4C847.5-1240.6,369.3-686.4,461.6-101.5c114.9,751.2,1091.9,1291,2274.1,1258.1l252.4-6.2l86.2,174.5c192.9,381.7,480.3,660.9,899,872.3c396.1,199.1,790.2,281.2,1293,266.8C5430.6,2459.9,5639.9,2441.5,5734.3,2423z"/></g></g>
</svg>