<?xml version="1.0" encoding="utf-8"?>
<!-- Svg Vector Icons : http://www.sfont.cn -->
<!DOCTYPE svg PUBLIC "-//W3C//DTD SVG 1.1//EN" "http://www.w3.org/Graphics/SVG/1.1/DTD/svg11.dtd">
<svg version="1.1" xmlns="http://www.w3.org/2000/svg" xmlns:xlink="http://www.w3.org/1999/xlink" x="0px" y="0px" viewBox="0 0 1000 1000" enable-background="new 0 0 1000 1000" xml:space="preserve">
<metadata> Svg Vector Icons : http://www.sfont.cn </metadata>
<g fill="white"><g transform="translate(0.000000,511.000000) scale(0.100000,-0.100000)"><path d="M4866.2,4945.9l-56.9-61.7l-7.1-844.5l-7.1-844.5l-443.6,443.6c-372.5,370.1-460.2,448.4-529,457.8c-104.4,16.6-204-59.3-225.4-175.5c-16.6-78.3-2.4-92.5,593.1-688l607.3-609.7v-1077c0-865.9-7.1-1072.3-30.8-1062.8c-85.4,33.2-1807.7,1041.4-1821.9,1067.5c-9.5,14.2-92.5,317.9-187.4,669c-239.6,906.2-253.8,953.6-315.5,996.4c-111.5,78.3-282.3,16.6-313.1-113.9c-7.1-28.5,59.3-317.9,149.4-657.1c90.2-332.1,161.3-607.3,158.9-612c-2.4-2.4-329.7,180.3-725.9,410.4c-443.6,256.2-744.9,415.2-785.2,415.2c-99.6,0-194.5-94.9-194.5-196.9c0-45.1,14.2-99.6,30.8-121c16.6-21.3,351.1-220.6,740.2-446c389.1-225.4,709.3-415.1,709.3-422.3c0-9.5-270.4-85.4-597.8-173.2c-650-173.2-706.9-201.6-706.9-351.1c0-97.3,92.5-187.4,192.2-187.4c42.7,0,415.1,90.1,830.3,201.6c412.8,111.5,771,201.6,792.3,201.6c23.7,0,453.1-237.2,956-524.3c730.7-422.3,903.8-531.4,877.7-555.1c-16.6-16.6-431.7-258.6-922.8-543.2l-892-512.4L1943.6-757c-436.5,116.2-820.8,213.5-851.6,213.5c-118.6,0-215.9-161.3-166.1-272.8c42.7-90.1,109.1-118.6,597.8-249.1c253.8-66.4,519.5-137.6,588.3-158.9l128.1-35.6l-730.7-422.3c-801.8-462.6-832.7-486.3-768.6-640.5c35.6-83,99.6-125.7,192.2-123.4c38,0,360.6,173.2,773.4,410.4c389,223,714,412.8,723.5,417.5c9.5,4.7,14.2-4.8,7.1-21.4c-4.7-16.6-80.6-294.2-166.1-616.8c-99.6-372.5-149.5-607.3-140-645.3c21.4-85.4,94.9-142.3,189.8-142.3c156.6,0,173.2,38,408,918.1c118.6,441.2,218.3,806.6,223,808.9c2.4,4.8,417.5,244.4,920.4,533.8l913.3,526.6l7.1-1074.6l4.8-1074.6l-593.1-593.1c-661.9-664.2-678.5-688-550.4-818.4c52.2-49.8,94.9-71.2,149.5-71.2c68.8,0,128.1,49.8,536.1,455.5l457.8,455.4v-808.9c0-820.8,7.1-908.6,90.1-970.2c71.2-54.6,204-40.3,268.1,28.5l56.9,61.7l7.1,842.1l7.1,844.5l457.8-453.1c398.5-398.5,465-455.5,531.4-455.5c111.5,0,204,90.1,204,199.3c0,83-33.2,121-597.8,685.6l-597.8,597.8l4.8,1072.3l7.1,1072.2l899.1-519.5c493.4-284.7,906.2-526.6,915.7-538.5c11.9-9.5,116.3-381.9,234.9-825.5c234.8-880.1,239.6-889.6,405.7-889.6c104.4,0,189.8,83,189.8,180.3c0,30.8-71.2,320.3-156.6,640.5c-85.4,320.3-151.8,586-147.1,590.7c2.4,4.8,327.4-177.9,718.8-405.7c771-446,816.1-464.9,925.2-353.4c80.7,78.3,78.3,187.4-4.7,268.1c-37.9,35.6-372.5,239.6-747.3,455.5c-374.8,215.9-673.7,398.5-664.2,405.7c9.5,9.5,225.4,71.2,479.2,140c820.8,218.3,806.6,211.1,806.6,377.2c0,73.6-14.2,104.4-61.7,142.3c-35.6,28.5-90.2,49.8-123.4,49.8c-33.2,0-403.3-92.5-820.8-204c-419.9-111.5-778.1-204-797.1-206.4c-21.4,0-450.7,237.2-958.4,529c-683.2,393.8-908.6,536.1-882.5,550.4c21.3,11.9,434.1,249.1,918,529c486.3,279.9,896.7,510,913.3,510c16.6,0,389.1-94.9,825.6-213.5c443.6-118.6,813.7-206.4,837.4-196.9c90.1,30.8,149.4,109.1,149.4,196.9c0,144.7-47.4,168.4-699.8,344c-325,87.8-595.4,161.3-600.2,163.7c-11.9,14.2,59.3,56.9,725.9,441.3c370.1,211.1,692.7,408,718.8,434.1c109.1,116.3,2.4,325-163.7,325c-23.7,0-367.7-187.4-763.9-415.2c-396.2-227.7-723.5-410.4-728.3-405.7c-7.1,4.7,59.3,270.4,144.7,588.3c85.4,317.9,156.6,607.3,156.6,645.2c0,92.5-97.3,180.3-199.3,180.3c-147.1,0-170.8-54.6-405.6-929.9l-211.1-797.1L6166.2,1008c-493.4-287-908.6-524.3-920.4-526.6c-11.9-4.8-21.4,419.9-21.4,1067.5v1074.6l597.8,597.8c564.6,564.6,597.8,602.5,597.8,685.6c0,109.1-92.5,199.3-204,199.3c-66.4,0-132.8-56.9-531.4-455.5l-457.8-453.1l-7.1,844.5l-7.1,842.2l-56.9,61.7C5075,5031.4,4946.9,5031.4,4866.2,4945.9z"/></g></g>
</svg>