<?xml version="1.0" encoding="utf-8"?>
<!-- Svg Vector Icons : http://www.sfont.cn -->
<!DOCTYPE svg PUBLIC "-//W3C//DTD SVG 1.1//EN" "http://www.w3.org/Graphics/SVG/1.1/DTD/svg11.dtd">
<svg version="1.1" xmlns="http://www.w3.org/2000/svg" xmlns:xlink="http://www.w3.org/1999/xlink" x="0px" y="0px" viewBox="0 0 1000 1000" enable-background="new 0 0 1000 1000" xml:space="preserve">
<metadata> Svg Vector Icons : http://www.sfont.cn </metadata>
<g fill="white"><g transform="translate(0.000000,511.000000) scale(0.100000,-0.100000)"><path d="M4884.9,4965.5l-57.4-49.2l-6.2-408.3c-8.2-449.3,0-523.2,59.5-582.7c59.5-59.5,182.6-53.3,244.2,12.3c55.4,57.4,55.4,69.8,45.1,652.4c-4.1,313.9-6.2,326.2-55.4,373.4C5051.1,5029.1,4960.9,5029.1,4884.9,4965.5z"/><path d="M2517.3,4319.2c-32.8-32.8-59.5-82.1-59.5-108.8c0-57.4,393.9-746.8,463.7-810.4c63.6-57.4,149.8-59.5,217.5-6.2c63.6,49.2,80,121,47.2,199c-49.2,114.9-404.2,714-445.2,750.9C2677.3,4397.2,2587,4388.9,2517.3,4319.2z"/><path d="M7252.6,4333.5c-82.1-84.1-451.4-753-451.4-818.6c0-139.5,174.4-213.4,279-114.9c28.7,24.6,141.6,203.1,252.3,393.9c223.7,391.9,240.1,453.4,143.6,535.5C7404.4,4393.1,7312.1,4393.1,7252.6,4333.5z"/><path d="M4540.3,3137.4c-705.8-114.9-1395.2-502.7-1850.6-1040.2c-348.8-410.3-572.4-859.7-687.3-1370.5c-63.6-287.2-69.8-915-10.3-1190c262.6-1235.1,1192-2164.6,2435.4-2433.3c248.3-55.4,900.7-55.4,1149,0c843.2,182.6,1536.7,658.6,1998.4,1372.6c199,303.7,338.5,636,424.7,1017.7c65.7,281.1,75.9,787.8,22.6,1099.7c-215.4,1249.5-1163.3,2240.5-2410.8,2515.4C5356.8,3164.1,4800.8,3178.4,4540.3,3137.4z M5412.2,2788.6C6438.1,2632.7,7271.1,1929,7582.9,952.3c96.4-305.7,133.4-592.9,121.1-943.8c-26.7-732.5-272.9-1304.9-783.8-1817.8c-391.9-391.9-806.3-617.6-1368.5-740.7c-238-51.3-859.7-51.3-1097.7,0c-547.8,116.9-980.7,348.8-1366.4,728.3c-387.8,383.7-627.8,828.9-746.8,1378.7c-51.3,244.2-53.3,861.7,0,1101.8c121.1,560.1,346.7,978.7,740.7,1370.5c324.2,322.1,629.9,512.9,1036.1,648.3C4515.6,2811.2,4997.8,2852.2,5412.2,2788.6z"/><path d="M845.1,2634.7c-102.6-41-143.6-182.6-73.9-262.6c18.5-24.6,197-135.4,393.9-248.3c402.1-231.9,473.9-252.4,551.9-153.9c55.4,71.8,55.4,158-2.1,219.5c-53.3,57.5-707.8,439.1-779.7,453.4C908.7,2649.1,867.7,2645,845.1,2634.7z"/><path d="M8695,2448c-197-114.9-379.6-227.7-404.2-250.3c-127.2-114.9,12.3-340.6,174.4-279c112.8,43.1,765.3,432.9,783.8,469.8c36.9,69.8,22.6,143.6-39,207.2c-32.8,32.8-82.1,59.5-108.7,59.5C9074.5,2655.3,8891.9,2560.9,8695,2448z"/><path d="M227.6,273.2c-129.3-36.9-168.2-176.5-80-279l49.2-57.5l463.7,2.1c457.5,0,463.7,2.1,515,49.2c34.9,32.8,51.3,69.8,51.3,117c0,96.4-28.7,141.6-104.6,168.2C1042.1,299.9,321.9,299.9,227.6,273.2z"/><path d="M8883.7,273.2c-96.4-28.7-139.5-131.3-98.5-231.8c45.1-110.8,114.9-123.1,590.9-108.8c459.6,12.3,496.5,22.6,521.1,147.7c14.4,86.2-28.7,166.2-106.7,194.9C9724.9,301.9,8974,297.8,8883.7,273.2z"/><path d="M1267.8-1842.1c-551.9-318-533.4-303.7-533.4-416.5c0-67.7,102.6-174.4,166.2-174.4c57.4,0,789.9,422.7,830.9,480.1c43.1,61.6,34.9,145.7-16.4,205.2C1626.8-1649.2,1589.9-1657.4,1267.8-1842.1z"/><path d="M8377-1690.3c-75.9-16.4-133.4-88.2-133.4-168.2c0-100.5,22.6-119,441.1-361.1c391.9-225.7,453.4-242.1,535.5-143.6c57.5,65.7,63.6,155.9,14.4,213.4c-36.9,43.1-644.2,400.1-755,445.2C8446.7-1692.3,8399.5-1684.1,8377-1690.3z"/><path d="M2915.3-3175.7c-24.6-26.7-133.4-203.1-244.2-396c-225.7-391.9-242.1-453.4-143.6-535.5c71.8-63.6,164.1-63.6,223.6-2.1c24.6,24.6,135.4,203.1,246.2,396c217.5,385.7,238,457.5,151.8,537.5C3083.5-3114.1,2970.7-3116.2,2915.3-3175.7z"/><path d="M6848.4-3181.9c-84.1-90.3-65.7-151.8,162.1-543.7c114.9-197,227.7-375.5,252.3-393.9c57.4-51.3,147.7-45.1,213.4,12.3c98.5,84.1,82.1,143.6-143.6,535.5c-110.8,192.9-223.6,369.3-252.3,396C7012.6-3112.1,6910-3116.2,6848.4-3181.9z"/><path d="M4926-3674.3c-100.5-43.1-112.8-119-104.6-601.2l6.2-418.6l57.4-49.2c100.5-86.2,221.6-57.5,272.9,63.6c22.6,53.3,24.6,153.9,14.4,500.6c-12.3,402.1-16.4,434.9-55.4,471.9C5055.2-3651.7,4999.8-3641.4,4926-3674.3z"/></g></g>
</svg>