<?xml version="1.0" encoding="utf-8"?>
<!-- Svg Vector Icons : http://www.sfont.cn -->
<!DOCTYPE svg PUBLIC "-//W3C//DTD SVG 1.1//EN" "http://www.w3.org/Graphics/SVG/1.1/DTD/svg11.dtd">
<svg version="1.1" xmlns="http://www.w3.org/2000/svg" xmlns:xlink="http://www.w3.org/1999/xlink" x="0px" y="0px" viewBox="0 0 1000 1000" enable-background="new 0 0 1000 1000" xml:space="preserve">
<metadata> Svg Vector Icons : http://www.sfont.cn </metadata>
<g fill="white"><g transform="translate(0.000000,511.000000) scale(0.100000,-0.100000)"><path d="M4876.9,4883.6l-57.3-49.2v-460.9c0-460.9,0-460.9,49.2-514.1c34.8-36.9,71.7-53.3,118.8-53.3c163.9,0,190.5,65.5,188.4,458.8c-2.1,430.1-20.5,581.7-77.9,628.8C5032.6,4947.1,4946.5,4943,4876.9,4883.6z"/><path d="M2513.2,4238.4c-32.8-32.8-59.4-81.9-59.4-106.5c0-59.4,419.9-786.5,477.2-827.5c131.1-92.2,313.4,43,258.1,190.5c-43,112.7-432.2,764-469,782.4C2650.4,4314.2,2576.7,4299.8,2513.2,4238.4z"/><path d="M7240.6,4252.7c-24.6-26.6-137.2-206.9-247.9-401.4c-223.3-391.2-239.6-450.6-145.4-530.5c32.8-28.7,79.9-47.1,120.8-47.1c90.1,0,114.7,30.7,350.2,440.4c225.3,391.2,243.8,452.7,145.4,534.6C7392.1,4312.1,7300,4312.1,7240.6,4252.7z"/><path d="M4512.3,3058.6c-1169.6-206.9-2130.2-1063-2457.9-2193.7c-92.2-317.5-118.8-551-106.5-929.9c12.3-368.7,38.9-528.4,147.5-852.1c233.5-704.6,749.7-1335.4,1399-1706.2c295-168,274.5-168,350.3,8.2c34.8,84,63.5,155.7,63.5,161.8c0,4.1-75.8,47.1-168,94.2c-356.4,180.2-735.3,505.9-956.5,821.3C2580.8-1253,2419-880.2,2339.1-525.8c-43,196.6-61.4,721-30.7,934c84,589.9,315.4,1075.3,710.8,1491.1C3418.5,2317.1,3863,2567,4430.4,2692c231.5,51.2,743.5,61.4,995.4,20.5c559.2-92.2,1026.2-327.7,1433.8-723c108.6-104.5,204.8-190.5,215.1-190.5c10.2,0,71.7,49.2,139.3,108.6l118.8,106.5l-165.9,168c-415.8,419.9-977,723-1579.2,856.2C5374.6,3085.2,4733.5,3097.5,4512.3,3058.6z"/><path d="M843.9,2556.8c-108.6-45.1-143.4-194.6-63.5-272.4c24.6-24.6,202.8-135.2,395.3-245.8c385.1-217.1,456.8-237.6,536.6-151.6c61.5,65.5,59.4,178.2,0,233.5c-65.5,59.4-714.8,432.2-776.3,444.5C909.4,2571.1,866.4,2567,843.9,2556.8z"/><path d="M8670.3,2362.2c-202.8-116.8-385.1-233.5-403.5-258.1c-51.2-61.4-47.1-165.9,10.2-217.1c67.6-61.4,110.6-69.6,188.4-38.9c135.2,57.4,749.6,426,768.1,462.9c36.9,69.6,22.5,143.4-38.9,206.9c-32.8,32.8-81.9,59.4-108.6,59.4S8873.1,2481,8670.3,2362.2z"/><path d="M6562.6,1368.8c-315.4-51.2-635-174.1-860.3-335.9c-133.1-94.2-352.3-317.5-411.7-415.8c-32.8-57.3-43-59.4-272.4-81.9c-362.5-36.9-641.1-122.9-899.2-276.5c-157.7-92.2-366.6-288.8-456.8-430.1c-366.6-563.3,4.1-1245.3,827.5-1523.9c168-57.4,434.2-110.6,555.1-110.6c63.5,0,135.2-26.6,278.6-100.4c387.1-204.8,764-292.9,1237.1-292.9c333.9,2,606.3,47.1,884.9,149.5c174.1,63.5,190.5,65.5,528.4,69.6c733.3,8.2,1253.5,198.7,1630.4,600.1c155.7,163.9,252,344.1,284.7,530.5C9968.9-388.6,9608.4,103,9002.1,359c-161.8,67.6-446.5,149.5-522.3,149.5c-26.6,0-73.8,45.1-133.1,129c-243.8,338-594,569.4-1038.5,684.1C7089,1377,6753.1,1397.5,6562.6,1368.8z M7236.5,987.8c77.8-18.4,229.4-73.7,335.9-125c243.7-116.7,432.2-297,534.6-510c38.9-77.8,71.7-143.4,73.7-147.5c2.1-2.1,98.3-20.5,215.1-36.9c540.7-79.9,932-301.1,1085.6-614.5c196.6-399.4-45-819.3-606.3-1042.5c-311.3-122.9-452.7-139.3-1212.6-127c-45.1,0-153.6-32.8-260.1-77.8c-294.9-125-512.1-159.8-923.8-147.5c-262.2,8.2-391.2,20.5-520.3,53.2c-188.4,49.2-460.8,168-604.2,266.3c-81.9,57.4-106.5,63.5-243.7,63.5c-561.2,0-1085.6,274.5-1212.6,635c-129,364.6,143.4,745.5,657.5,921.7c180.2,63.5,544.8,108.6,737.4,94.2l165.9-12.3l77.8,157.7C5802.7,877.2,6509.4,1147.6,7236.5,987.8z"/><path d="M227.4,199.2C98.3,162.4,59.4,23.1,147.5-79.3l49.2-57.3l462.9,2c456.8,0,462.9,2.1,514.1,49.2c34.8,32.8,51.2,69.6,51.2,116.7c0,96.3-28.7,141.3-104.5,167.9C1040.5,225.9,321.6,225.9,227.4,199.2z"/><path d="M1517.8-1775.3c-141.3-59.4-745.6-426-764-460.9c-36.9-69.6-22.5-143.4,38.9-206.9c32.8-32.8,79.9-59.4,106.5-59.4c57.3,0,788.6,421.9,827.5,477.2c45.1,65.5,38.9,163.9-14.3,213C1646.8-1752.8,1593.5-1742.5,1517.8-1775.3z"/><path d="M4883-2363.1c-147.5-520.2-239.6-882.8-225.3-897.1c10.2-8.2,86-34.8,165.9-57.4l149.5-41l20.5,73.7c10.2,41,73.7,270.4,139.3,510l120.9,434.2l-157.7,41c-86,24.6-161.8,43-168,43C4919.9-2256.6,4901.5-2305.8,4883-2363.1z"/><path d="M8416.3-2393.9c-12.3-43-71.7-262.2-135.2-487.5c-61.4-225.3-112.7-419.9-112.7-430.1c0-12.3,73.7-41,163.9-65.5l163.9-43l20.5,75.8c10.2,41,69.6,258.1,133.1,483.4c61.4,225.3,112.6,419.9,112.6,434.2c0,20.5-98.3,57.3-270.4,98.3C8442.9-2316,8434.7-2320.1,8416.3-2393.9z"/><path d="M6665-2514.7c-77.8-258.1-258.1-942.2-251.9-960.6c12.3-26.6,297-102.4,317.5-84c6.1,8.2,73.8,235.5,147.5,503.9l137.2,491.6l-108.6,30.7C6708-2475.8,6679.4-2473.7,6665-2514.7z"/><path d="M2910.6-3243.9c-22.5-26.6-133.1-202.8-243.7-395.3c-225.3-391.2-241.7-450.6-143.4-534.6c71.7-63.5,163.9-63.5,223.3-2.1c24.6,24.6,135.2,202.8,245.8,395.3c217.1,385.1,237.6,456.8,151.6,536.7C3078.5-3182.4,2965.9-3184.5,2910.6-3243.9z"/><path d="M5403.3-3923.9c-47.1-170-110.6-395.3-139.3-497.7c-28.7-104.5-47.1-194.6-41-200.7c20.5-20.5,305.2-96.3,317.5-84c14.3,14.3,270.4,936,272.4,975c0,22.5-47.1,45.1-161.8,75.8l-161.8,43L5403.3-3923.9z"/><path d="M7279.5-3647.4c-6.1-18.4-67.6-235.5-135.2-483.4s-127-460.9-133.1-475.2c-6.1-22.5,311.3-122.9,329.8-102.4c10.2,10.2,274.5,958.6,274.5,987.3c0,12.3-73.7,41-163.9,63.5C7304.1-3618.7,7287.7-3616.7,7279.5-3647.4z"/></g></g>
</svg>