<?xml version="1.0" encoding="utf-8"?>
<!-- Svg Vector Icons : http://www.sfont.cn -->
<!DOCTYPE svg PUBLIC "-//W3C//DTD SVG 1.1//EN" "http://www.w3.org/Graphics/SVG/1.1/DTD/svg11.dtd">
<svg version="1.1" xmlns="http://www.w3.org/2000/svg" xmlns:xlink="http://www.w3.org/1999/xlink" x="0px" y="0px" viewBox="0 0 1000 1000" enable-background="new 0 0 1000 1000" xml:space="preserve">
<metadata> Svg Vector Icons : http://www.sfont.cn </metadata>
<g fill="white"><g transform="translate(0.000000,511.000000) scale(0.100000,-0.100000)"><path d="M4883.1,4960.6l-57.4-49.2v-461.5c0-461.5,0-461.5,49.2-514.8c34.9-36.9,71.8-53.3,119-53.3c164.1,0,190.7,65.6,188.7,459.4c-2.1,430.7-20.5,582.5-78,629.6C5038.9,5024.2,4952.8,5020.1,4883.1,4960.6z"/><path d="M2516.3,4314.6c-32.8-32.8-59.5-82-59.5-106.7c0-59.5,420.4-787.5,477.9-828.6c131.3-92.3,313.8,43.1,258.4,190.7c-43.1,112.8-432.7,765-469.7,783.4C2653.7,4390.5,2579.9,4376.1,2516.3,4314.6z"/><path d="M7249.8,4328.9c-24.6-26.7-137.4-207.1-248.2-402c-223.5-391.7-239.9-451.2-145.6-531.2c32.8-28.7,80-47.2,121-47.2c90.2,0,114.8,30.8,350.7,440.9c225.6,391.7,244.1,453.2,145.6,535.3C7401.6,4388.4,7309.3,4388.4,7249.8,4328.9z"/><path d="M4651.3,3149.7c-149.7-14.4-484-94.3-654.2-153.8c-443-155.9-806-389.7-1162.9-744.5c-365.1-363-607.1-752.7-758.8-1212.1c-110.7-340.4-139.5-529.1-141.5-920.8c0-369.2,16.4-506.6,57.4-492.2c14.4,4.1,90.2,18.4,168.2,30.8l145.6,22.6l-14.4,116.9c-123.1,982.4,342.5,2009.9,1160.8,2555.4c436.8,293.3,888,436.8,1425.4,457.4c1228.5,47.2,2292.9-678.8,2676.4-1825.3c141.5-420.4,176.4-961.9,94.3-1386.4c-22.5-119-39-217.4-34.8-221.5c22.5-22.5,307.6-88.2,319.9-73.8c26.7,26.7,82,330.2,102.5,564c45.1,523-55.4,1048-297.4,1544.3c-162,334.3-334.3,580.4-584.5,830.6c-490.2,492.2-1072.6,793.7-1733,892.1C5235.8,3159.9,4840,3170.2,4651.3,3149.7z"/><path d="M844.8,2630.8c-108.7-45.1-143.6-194.8-63.6-272.8c24.6-24.6,203-135.4,395.8-246.1c385.6-217.4,457.3-237.9,537.3-151.8c61.5,65.6,59.5,178.4,0,233.8c-65.6,59.5-715.8,432.7-777.3,445C910.5,2645.2,867.4,2641,844.8,2630.8z"/><path d="M8681.3,2436c-203-116.9-385.6-233.8-404-258.4c-51.3-61.5-47.2-166.1,10.3-217.4c67.7-61.5,110.8-69.7,188.7-39c135.4,57.4,750.6,426.6,769.1,463.5c36.9,69.7,22.5,143.6-39,207.1c-32.8,32.8-82,59.5-108.7,59.5C9071,2651.3,8884.4,2554.9,8681.3,2436z"/><path d="M227.5,270.2C98.3,233.3,59.4,93.8,147.5-8.7l49.2-57.4l463.5,2c457.4,0,463.5,2.1,514.8,49.2c34.9,32.8,51.3,69.7,51.3,116.9c0,96.4-28.7,141.5-104.6,168.2C1041.7,296.9,321.9,296.9,227.5,270.2z"/><path d="M8906.9,278.4c-168.2-43.1-188.7-274.8-30.8-332.3c75.9-24.6,559.9-28.7,797.8-4.1c123.1,12.3,157.9,22.6,188.7,61.5c53.3,65.6,49.2,151.8-10.3,221.5l-49.2,57.4l-428.6,4.1C9140.8,288.7,8929.5,284.6,8906.9,278.4z"/><path d="M3986.8,159.5c-494.3-94.4-914.7-305.6-1230.5-619.4c-131.3-129.2-322-389.7-350.7-473.8c-8.2-30.8-53.3-41-272.8-61.5c-465.6-41-912.7-184.6-1269.5-404c-194.8-121-506.6-428.7-598.9-588.6c-334.3-592.7-141.5-1232.6,512.7-1692c506.6-354.8,1263.4-533.2,1948.4-459.4l219.4,24.6l160-116.9c182.5-131.3,533.2-307.6,773.2-387.6c828.6-274.8,1823.3-211.2,2582.1,166.1c75.9,39,170.2,69.7,209.2,69.7c39,0,178.4,18.5,313.8,41C8219.9-4131,9054.6-3335.3,8909-2500.6C8771.6-1719.2,7875.3-1108,6700.2-997.3l-260.5,24.6L6388.4-866c-28.7,57.4-106.7,174.3-174.3,258.4c-272.8,338.4-695.3,596.8-1189.5,728.1C4770.3,188.2,4245.2,208.7,3986.8,159.5z M4817.4-189.2c221.5-39,424.5-108.7,637.8-217.4c313.8-164.1,623.5-523,713.7-830.6l24.6-84.1l301.5-12.3c498.4-20.5,877.8-104.6,1230.5-270.7c590.7-281,896.2-717.8,840.9-1199.8c-73.8-629.6-873.7-1152.6-1872.5-1222.3c-188.7-14.4-217.4-22.6-371.2-102.5c-205.1-110.8-529.1-217.4-799.9-266.6c-248.1-45.1-824.5-51.3-1056.2-10.3c-523,88.2-947.5,272.8-1279.8,553.7l-139.5,118.9l-145.6-30.8c-221.5-47.2-810.1-43.1-1060.3,4.1c-771.1,149.7-1281.8,541.4-1378.2,1054.2c-63.6,336.3,119,711.7,461.5,955.7c371.2,262.5,808.1,391.7,1400.8,416.3l311.7,12.3l24.6,84.1c73.8,248.2,315.8,568.1,551.7,728.1c233.8,160,504.5,268.7,787.5,320C4202.2-152.3,4610.3-152.3,4817.4-189.2z"/></g></g>
</svg>