<?xml version="1.0" encoding="utf-8"?>
<!-- Svg Vector Icons : http://www.sfont.cn -->
<!DOCTYPE svg PUBLIC "-//W3C//DTD SVG 1.1//EN" "http://www.w3.org/Graphics/SVG/1.1/DTD/svg11.dtd">
<svg version="1.1" xmlns="http://www.w3.org/2000/svg" xmlns:xlink="http://www.w3.org/1999/xlink" x="0px" y="0px" viewBox="0 0 1000 1000" enable-background="new 0 0 1000 1000" xml:space="preserve">
<metadata> Svg Vector Icons : http://www.sfont.cn </metadata>
<g fill="white"><g transform="translate(0.000000,511.000000) scale(0.100000,-0.100000)"><path d="M4883.1,4962l-57.4-49.2v-461.5c0-461.5,0-461.5,49.2-514.8c34.9-36.9,71.8-53.3,119-53.3c164.1,0,190.7,65.6,188.7,459.4c-2.1,430.7-20.5,582.5-78,629.6C5038.9,5025.6,4952.8,5021.5,4883.1,4962z"/><path d="M7030.4,4510.8c-149.7-41-244.1-94.3-369.2-211.2c-65.6-59.5-135.4-108.7-157.9-108.7c-65.6,0-319.9-135.4-420.4-223.5c-123.1-108.7-201-264.6-201-397.9c0-295.3,361-568.1,750.6-568.1c104.6,0,153.8-12.3,250.2-61.5c266.6-135.4,607.1-160,875.7-61.5c67.7,24.6,180.5,57.4,250.2,71.8c301.5,65.6,549.6,256.4,611.2,469.7c39,131.3,28.7,201-41,340.4c-92.3,178.4-309.7,340.4-539.4,402c-106.7,28.7-151.8,51.3-201,108.7C7655.9,4480.1,7299,4584.7,7030.4,4510.8z M7477.5,4129.4c53.3-30.8,100.5-82,135.4-143.6c59.5-106.7,123.1-143.6,258.4-143.6c176.4,0,375.3-114.9,408.1-240c45.1-164.1-84.1-276.9-361-315.8c-75.9-10.3-180.5-39-231.7-63.6c-205.1-96.4-543.5-65.6-707.6,65.6c-73.8,59.5-86.1,61.5-274.8,61.5c-108.7,0-231.7,10.3-272.8,20.5c-112.8,32.8-201,114.8-201,188.7c0,151.8,139.5,264.6,363,293.3c170.2,22.6,180.5,26.7,246.1,121c71.8,100.5,131.2,145.6,248.1,188.7C7192.4,4203.2,7377,4186.8,7477.5,4129.4z"/><path d="M2516.3,4316c-32.8-32.8-59.5-82-59.5-106.7c0-59.5,420.4-787.5,477.9-828.6c131.3-92.3,313.8,43.1,258.4,190.7c-43.1,112.8-432.7,765-469.7,783.4C2653.7,4391.9,2579.9,4377.5,2516.3,4316z"/><path d="M4518,3132.6C3365.4,2937.8,2378.9,2062.1,2059,946.4c-55.4-190.7-114.9-551.7-114.9-691.1v-84.1h174.3h174.3V245c0,147.7,65.6,512.7,127.2,705.5c127.1,402,328.1,736.3,623.5,1043.9c471.7,492.2,1087,779.3,1757.6,816.3l198.9,12.3v170.2v172.3l-157.9-2.1C4753.9,3161.3,4608.2,3149,4518,3132.6z"/><path d="M844.8,2632.2c-108.7-45.1-143.6-194.8-63.6-272.8c24.6-24.6,203-135.4,395.8-246.1c385.6-217.4,457.3-237.9,537.3-151.8c61.5,65.6,59.5,178.4,0,233.8c-65.6,59.5-715.8,432.7-777.3,445C910.5,2646.6,867.4,2642.5,844.8,2632.2z"/><path d="M8681.3,2437.4c-203-116.9-385.6-233.8-404-258.4c-51.3-61.5-47.2-166.1,10.3-217.4c67.7-61.5,110.8-69.7,188.7-39c135.4,57.4,750.6,426.6,769.1,463.5c36.9,69.7,22.5,143.6-39,207.1c-32.8,32.8-82,59.5-108.7,59.5C9071,2652.7,8884.4,2556.3,8681.3,2437.4z"/><path d="M6882.7,2300l-112.8-127.1l151.8-151.8c402-399.9,664.5-914.7,756.8-1476.6c39-240,28.7-775.2-22.6-998.8C7541-975.3,7317.5-1397.8,6964.7-1767c-504.5-529.1-1216.2-830.6-1964.8-830.6c-119,0-297.4,14.4-399.9,30.8c-100.5,16.4-190.7,30.8-196.9,30.8c-14.4,0-88.2-326.1-75.9-338.4c4.1-4.1,112.8-22.6,242-43.1c180.5-26.7,307.6-30.8,543.5-22.6c459.4,18.5,816.3,110.8,1224.4,311.7c861.4,426.6,1462.3,1203.9,1669.4,2163.7c53.3,248.1,55.4,900.3,2.1,1148.5c-90.3,416.3-248.2,799.8-463.5,1121.8c-135.4,203-397.9,512.7-490.1,578.3l-61.5,43.1L6882.7,2300z"/><path d="M227.5,271.6C98.3,234.7,59.4,95.2,147.5-7.3l49.2-57.4l463.5,2c457.4,0,463.5,2.1,514.8,49.2c34.9,32.8,51.3,69.7,51.3,116.9c0,96.4-28.7,141.5-104.6,168.2C1041.7,298.3,321.9,298.3,227.5,271.6z"/><path d="M8906.9,279.8C8738.8,236.8,8718.3,5,8876.2-52.4c75.9-24.6,559.9-28.7,797.8-4.1C9797-44.2,9831.9-34,9862.6,5c53.3,65.6,49.2,151.8-10.3,221.5l-49.2,57.4l-428.6,4.1C9140.8,290.1,8929.5,286,8906.9,279.8z"/><path d="M2538.9-269.8c-260.5-59.5-551.7-240-656.3-410.2c-32.8-53.3-59.5-71.8-100.5-71.8c-104.6,0-379.4-82-535.3-157.9c-184.6-90.3-379.4-274.8-449.1-426.6c-69.7-147.7-67.7-338.4,6.2-488.1c121-248.2,459.4-473.8,814.2-541.4c94.3-18.5,223.5-53.3,285.1-77.9c305.6-123.1,695.3-157.9,988.5-86.1c147.7,36.9,371.2,129.2,463.5,194.8c45.1,32.8,92.3,39,260.5,41c348.7,0,631.7,102.5,853.2,305.6c67.7,63.6,147.7,162,178.4,219.4c196.9,381.5-121,832.7-689.1,978.3c-84.1,20.5-180.5,39-213.3,39c-30.8,0-57.4,8.2-57.4,18.4c0,41-215.3,250.2-324,317.9C3117.2-267.8,2801.4-210.3,2538.9-269.8z M3076.2-649.2c149.7-55.4,250.2-143.6,313.8-276.9c30.8-61.5,67.7-123.1,84.1-135.4c16.4-14.3,121-32.8,229.7-41c346.6-26.7,551.7-129.2,627.6-311.7c34.9-84.1,36.9-104.6,14.4-182.5c-34.9-114.8-151.8-225.6-303.5-287.1c-106.6-41-153.8-47.2-428.6-47.2l-309.7-2.1l-80-63.6c-194.8-153.8-410.2-219.4-705.5-219.4c-207.1,2.1-367.1,36.9-533.2,118.9c-55.4,28.7-149.7,53.3-237.9,59.5c-373.3,34.9-646,221.5-648.1,449.2c-4.1,266.6,278.9,457.4,711.7,482c217.4,12.3,264.6,36.9,317.9,157.9c71.8,168.2,242,295.3,457.3,340.5C2711.2-581.5,2949.1-600,3076.2-649.2z"/><path d="M8373.7-1691.1c-75.9-16.4-133.3-88.2-133.3-168.2c0-100.5,24.6-118.9,440.9-358.9c391.7-225.6,453.2-244.1,535.3-145.6c57.4,65.6,63.6,155.9,14.4,213.3c-36.9,43.1-644,399.9-754.7,445C8443.4-1693.1,8396.3-1684.9,8373.7-1691.1z"/><path d="M2914.2-3175.9c-22.5-26.7-133.3-203-244.1-395.8c-225.6-391.7-242-451.2-143.6-535.3c71.8-63.6,164.1-63.6,223.5-2.1c24.6,24.6,135.4,203,246.1,395.8c217.4,385.6,237.9,457.4,151.8,537.3C3082.4-3114.4,2969.6-3116.4,2914.2-3175.9z"/><path d="M6851.9-3175.9c-61.5-69.7-69.7-112.8-39-190.7c57.4-135.4,426.6-750.6,463.5-769.1c69.7-36.9,143.6-22.5,207.1,39c32.8,32.8,59.5,80,59.5,106.6c0,57.4-422.5,789.6-477.9,828.6C6999.6-3116.4,6901.2-3122.6,6851.9-3175.9z"/><path d="M4926.1-3672.3c-96.4-43.1-110.7-110.7-110.7-553.7c0-436.8,18.5-516.8,129.2-553.8c82-28.7,162,6.2,205.1,90.3c34.9,63.6,36.9,114.8,28.7,498.4c-8.2,420.4-8.2,428.7-57.4,475.8C5055.3-3651.7,5002-3639.4,4926.1-3672.3z"/></g></g>
</svg>