<?xml version="1.0" encoding="utf-8"?>
<!-- Svg Vector Icons : http://www.sfont.cn -->
<!DOCTYPE svg PUBLIC "-//W3C//DTD SVG 1.1//EN" "http://www.w3.org/Graphics/SVG/1.1/DTD/svg11.dtd">
<svg version="1.1" xmlns="http://www.w3.org/2000/svg" xmlns:xlink="http://www.w3.org/1999/xlink" x="0px" y="0px" viewBox="0 0 1000 1000" enable-background="new 0 0 1000 1000" xml:space="preserve">
<metadata> Svg Vector Icons : http://www.sfont.cn </metadata>
<g fill="white"><g transform="translate(0.000000,511.000000) scale(0.100000,-0.100000)"><path d="M4837.8,4862.4c-38.3-9-114.9-42.8-169-74.3C4520.1,4700.2,611.4,773.5,550.6,651.8c-60.8-123.9-81.1-319.9-45.1-450.6C537.1,79.6,697-96.1,838.9-166c92.4-45,148.7-51.8,448.3-58.6l344.7-9v-989v-989h191.5h191.5v1182.8V153.9l-477.6,2.3c-263.6,2.3-504.6,9-533.9,18C877.2,208,820.9,392.7,902,496.4c24.8,31.5,941.7,948.5,2041.1,2041.1c1707.7,1700.9,2005.1,1987,2059.1,1987c56.3,0,356-290.6,2097.4-2032.1C9321,271.1,9190.3,417.5,9091.2,253.1c-56.3-92.4-96.9-99.1-646.6-99.1H7985v-1182.8v-1182.8h191.5H8368v989v989l344.7,9c304.1,6.8,353.7,13.5,443.8,60.8c232,119.4,344.7,290.6,346.9,520.4c2.2,261.3-6.8,272.6-597,867.4L8368,1767v1502.7v1502.7h-777.2h-777.2v-725.4v-727.7l-748,748c-711.9,707.4-757,747.9-871.8,781.7C5063.1,4887.2,4954.9,4891.7,4837.8,4862.4z M7985,3285.4c0-606-9-1103.9-18-1103.9c-9,0-187,171.2-394.3,378.5l-376.2,378.5v725.4v725.4h394.2H7985V3285.4z"/><path d="M3941.1-438.6c-6.8-15.8-9-315.4-6.8-669.1l6.8-642.1h191.5h191.5l6.8,479.9l4.5,477.6H5000h664.6v-484.4V-1761h191.5h191.5v675.9v675.9H5000C4175.4-409.3,3947.9-416,3941.1-438.6z"/><path d="M100-2333.2v-189.2l81.1-15.8c128.4-22.5,290.6-103.6,585.7-286.1c669.1-419,946.2-479.9,1390-299.6c126.2,51.8,198.3,94.6,660.1,378.5c468.6,286.1,630.8,279.4,1158-51.8c869.6-547.4,1144.5-554.2,1937.5-56.3c412.3,256.8,542.9,315.4,720.9,315.4c171.2-2.3,299.6-56.3,675.9-292.9c459.6-290.6,682.6-380.7,946.2-380.7c295.1-2.2,430.3,56.3,1112.9,477.6c146.4,90.1,274.8,150.9,376.2,178L9900-2518v187c0,216.3,6.7,211.8-241.1,153.2c-198.3-47.3-374-132.9-750.2-369.5c-394.2-247.8-567.7-313.1-743.4-274.9c-141.9,31.6-315.4,117.2-612.8,308.7c-784,500.1-1056.6,493.4-1921.7-45.1c-385.2-238.8-556.5-299.6-736.7-263.6c-141.9,29.3-328.9,123.9-626.3,310.9c-515.9,326.7-806.5,412.3-1130.9,335.7c-202.8-47.3-371.7-130.7-761.5-374c-394.2-245.6-570-308.7-743.4-272.6c-139.7,29.3-272.6,96.9-594.8,297.4C730.8-2331,514.5-2225.1,336.5-2180C97.7-2116.9,100-2114.7,100-2333.2z"/><path d="M100-3775.1v-189.2l81.1-15.8c128.4-22.5,290.6-103.6,585.7-286.1c669.1-419,946.2-479.9,1390-299.6c126.2,51.8,198.3,94.6,660.1,378.5c468.6,286.1,630.8,279.4,1158-51.8c869.6-547.4,1144.5-554.2,1937.5-56.3c412.3,256.8,542.9,315.4,720.9,315.4c171.2-2.2,299.6-56.3,675.9-292.9c457.3-288.4,682.6-380.7,946.2-380.7c290.6-2.2,428,56.3,1112.9,477.6c146.4,90.1,274.8,150.9,376.2,178l155.5,38.3v187c0,216.3,6.7,211.8-241.1,153.2c-198.3-47.3-374-132.9-750.2-369.5c-615-387.5-684.9-383-1401.3,58.6c-761.5,470.8-1025.1,459.6-1876.6-69.9c-385.2-238.8-556.5-299.6-736.7-263.6c-141.9,29.3-328.9,123.9-626.3,310.9c-759.2,479.9-1094.9,479.9-1831.6,0c-283.9-184.7-421.3-256.8-563.2-297.4c-218.5-63.1-356-15.8-835.8,283.8c-306.4,193.8-522.7,299.7-700.6,344.7C97.7-3558.8,100-3556.5,100-3775.1z"/></g></g>
</svg>