<?xml version="1.0" encoding="utf-8"?>
<!-- Svg Vector Icons : http://www.sfont.cn -->
<!DOCTYPE svg PUBLIC "-//W3C//DTD SVG 1.1//EN" "http://www.w3.org/Graphics/SVG/1.1/DTD/svg11.dtd">
<svg version="1.1" xmlns="http://www.w3.org/2000/svg" xmlns:xlink="http://www.w3.org/1999/xlink" x="0px" y="0px" viewBox="0 0 1000 1000" enable-background="new 0 0 1000 1000" xml:space="preserve">
<metadata> Svg Vector Icons : http://www.sfont.cn </metadata>
<g fill="white"><g transform="translate(0.000000,511.000000) scale(0.100000,-0.100000)"><path d="M4725.8,4772.7c-804.6-131.4-1486-543.9-1863.6-1130.9l-94.4-145.7l-283.2-12.3c-790.2-32.8-1514.7-324.3-1958-790.2C-3,2141.5-42,1470.3,423.9,897.7C822,409.2,1597.9,52.1,2365.5,6.9l225.8-12.3l205.2-119c351-203.2,769.7-351,1221.2-431c295.6-53.4,872.3-73.9,1167.9-41.1c412.5,45.2,882.6,166.3,1202.7,309.9c121.1,53.4,139.6,57.5,270.9,39c75.9-8.2,268.9-16.4,426.9-18.5c459.8,0,792.2,51.3,1215.1,186.8C9348,259.4,9998.6,1016.7,9887.8,1770c-108.8,753.3-857.9,1387.5-1929.3,1629.7c-119,26.7-240.1,49.3-270.9,49.3c-45.2,0-67.7,18.5-110.8,88.3c-387.9,628-991.4,1040.6-1769.2,1204.8C5540.6,4799.4,4986.5,4813.8,4725.8,4772.7z M5772.6,4397.2c714.2-153.9,1258.2-543.9,1525-1091.9c41.1-84.2,84.2-160.1,96.5-168.3c10.3-8.2,53.4-16.4,94.4-16.4c229.9,0,788.2-143.7,1077.5-277.1c338.7-153.9,691.7-447.4,833.3-687.6c203.2-348.9,197-759.4-16.4-1112.4c-262.7-431-884.6-782-1619.4-911.3C7500.7,87,6965,70.6,6688,101.3L6460.1,128L6218,23.4c-240.1-102.6-572.6-201.2-866.1-252.5c-207.3-36.9-1005.7-34.9-1210.9,0c-537.7,96.5-952.3,252.5-1317.7,500.8c-114.9,75.9-121.1,78-305.8,78c-234,0-560.3,47.2-794.3,114.9C914.4,698.6,405.4,1238.4,452.6,1809c51.3,607.5,638.3,1096,1537.3,1274.6c188.8,36.9,303.8,45.2,615.7,47.2h381.7l75.9,153.9c307.9,621.9,942.1,1040.6,1744.6,1147.3C5031.6,4462.8,5557.1,4442.3,5772.6,4397.2z"/><path d="M4194.2-1754.1c-344.8-435.1-628.1-794.3-628.1-800.5c0-6.2,340.7-12.3,755.3-14.4l757.4-6.2l-706-888.7c-387.9-490.5-704-896.9-704-905.2c0-20.5,236-207.3,260.7-207.3c16.4,2,1857.5,2323.4,1869.8,2360.3c4.1,12.3-268.9,20.5-743,20.5c-412.5,0-751.2,4.1-751.2,10.3c0,6.2,178.6,234,398.2,509l398.2,500.8l-114.9,90.3c-63.6,49.2-125.2,96.4-139.6,106.7C4830.5-968,4621.1-1216.3,4194.2-1754.1z"/></g></g>
</svg>