<?xml version="1.0" encoding="utf-8"?>
<!-- Svg Vector Icons : http://www.sfont.cn -->
<!DOCTYPE svg PUBLIC "-//W3C//DTD SVG 1.1//EN" "http://www.w3.org/Graphics/SVG/1.1/DTD/svg11.dtd">
<svg version="1.1" xmlns="http://www.w3.org/2000/svg" xmlns:xlink="http://www.w3.org/1999/xlink" x="0px" y="0px" viewBox="0 0 1000 1000" enable-background="new 0 0 1000 1000" xml:space="preserve">
<metadata> Svg Vector Icons : http://www.sfont.cn </metadata>
<g fill="white"><g transform="translate(0.000000,511.000000) scale(0.100000,-0.100000)"><path d="M3766.7,4411C2011.7,4269.9,669.2,2705.1,818.8,975.7c10.7-124,34.2-297.1,53.4-386.9c32.1-164.6,164.6-585.7,200.9-643.5c27.8-47,350.6,96.2,331.3,145.4c-70.5,173.2-164.6,498.1-192.4,652c-40.6,241.6-40.6,711.9,0,970.5c141.1,870,684.1,1618.2,1464.3,2022.3c421.1,215.9,825.2,312.1,1327.5,312.1c316.4,0,564.3-34.2,812.3-113.3l158.2-49.2l-117.6-59.9c-380.5-192.4-838-600.7-1073.1-953.4C3471.7,2397.3,3275,1818,3275,1360.5v-134.7h177.4H3632l12.8,220.2c62,1000.4,761,1889.7,1735.8,2206.1c188.1,62,245.8,111.2,245.8,207.4c0,109-40.6,147.5-262.9,252.2C4850.5,4351.1,4305.4,4453.7,3766.7,4411z"/><path d="M5367.8,1108.2c-410.4-55.6-838-198.8-1133-376.2l-164.6-98.3l-267.2-15c-504.5-25.7-878.6-121.9-1280.5-324.9C2050.1,52.2,1699.5-279.1,1505-666c-62-124-70.5-132.5-190.3-168.9c-365.5-115.4-765.3-382.6-962-643.4C-59.8-2023.5,36.4-2619.9,613.6-3083.7c416.8-337.8,1053.9-543,1678.1-543h250.1l233-115.4c570.8-284.3,1205.6-431.8,1966.7-455.3c780.2-23.5,1485.7,94.1,2116.3,352.7c98.3,40.6,209.5,68.4,320.6,77c540.8,47,1126.6,209.5,1569.1,429.7c399.7,200.9,820.9,557.9,983.3,833.7c406.2,688.3,66.3,1380.9-861.5,1755c-94.1,38.5-188.1,72.7-207.4,79.1c-25.7,6.4-47,49.2-64.1,124c-12.8,64.1-62,192.4-106.9,286.5C8042,682.8,6665.4,1285.7,5367.8,1108.2z M6517.9,702.1c307.8-62,504.5-130.4,765.3-260.8C7537.6,313,7700,195.4,7883.9,3.1c239.4-254.4,361.3-504.5,386.9-801.6c12.8-151.8,12.8-153.9,79.1-168.9c173.1-36.3,532.3-166.7,675.5-247.9c190.3-104.8,378.4-286.5,448.9-433.9c42.8-89.8,53.4-139,53.4-299.3c0-175.3-6.4-207.4-68.4-331.3C9181.4-2842.2,8253.7-3299.6,7202-3393.7c-201-17.1-295-36.3-410.4-85.5c-297.1-119.7-386.9-151.8-619.9-211.6c-431.8-111.2-675.5-136.8-1250.5-136.8c-577.2,0-820.9,25.7-1250.5,136.8c-346.3,89.8-692.6,233-949.1,389.1c-64.1,40.6-100.5,44.9-352.7,40.6c-880.7-14.9-1599,301.4-1836.3,805.9c-55.6,117.6-66.3,166.7-66.3,303.6c0,226.6,83.4,401.9,280,592.1c171,166.7,500.2,337.7,797.4,414.7l192.4,51.3l42.8,128.3c158.2,476.7,617.8,876.5,1242,1079.5c290.7,96.2,532.3,134.7,852.9,136.8l290.7,2.1l151.8,102.6C4602.5,546,4955.2,680.7,5305.8,732c87.6,12.8,183.8,27.8,213.8,32.1c29.9,6.4,207.4,6.4,395.5,2.1C6169.5,759.8,6323.3,742.7,6517.9,702.1z"/></g></g>
</svg>