<?xml version="1.0" encoding="utf-8"?>
<!-- Svg Vector Icons : http://www.sfont.cn -->
<!DOCTYPE svg PUBLIC "-//W3C//DTD SVG 1.1//EN" "http://www.w3.org/Graphics/SVG/1.1/DTD/svg11.dtd">
<svg version="1.1" xmlns="http://www.w3.org/2000/svg" xmlns:xlink="http://www.w3.org/1999/xlink" x="0px" y="0px" viewBox="0 0 1000 1000" enable-background="new 0 0 1000 1000" xml:space="preserve">
<metadata> Svg Vector Icons : http://www.sfont.cn </metadata>
<g fill="white"><g transform="translate(0.000000,511.000000) scale(0.100000,-0.100000)"><path d="M4725.8,4557.2c-804.6-131.4-1486-543.9-1863.6-1130.9l-94.4-145.7l-283.2-12.3c-790.2-32.8-1514.7-324.3-1958-790.2C-3,1926-42,1254.8,423.9,682.2c398.2-488.5,1174-845.6,1941.6-890.8l225.8-12.3l205.2-119c351-203.2,769.7-351,1221.2-431c295.6-53.4,872.3-73.9,1167.9-41.1c412.5,45.2,882.6,166.3,1202.7,309.9c121.1,53.4,139.6,57.5,270.9,39c75.9-8.2,268.9-16.4,426.9-18.5c459.8,0,792.2,51.3,1215.1,186.8C9348,43.9,9998.6,801.2,9887.8,1554.5c-108.8,753.3-857.9,1387.5-1929.3,1629.7c-119,26.7-240.1,49.3-270.9,49.3c-45.2,0-67.7,18.5-110.8,88.3c-387.9,628-991.4,1040.6-1769.2,1204.8C5540.6,4583.9,4986.5,4598.3,4725.8,4557.2z M5772.6,4181.6c714.2-153.9,1258.2-543.9,1525-1091.9c41.1-84.2,84.2-160.1,96.5-168.3c10.3-8.2,53.4-16.4,94.4-16.4c229.9,0,788.2-143.7,1077.5-277.1c338.7-153.9,691.7-447.4,833.3-687.6c203.2-348.9,197-759.4-16.4-1112.4c-262.7-431-884.6-782-1619.4-911.3C7500.7-128.5,6965-145,6688-114.2l-227.8,26.7L6218-192.1c-240.1-102.6-572.6-201.2-866.1-252.5c-207.3-36.9-1005.7-34.9-1210.9,0c-537.7,96.5-952.3,252.5-1317.7,500.8c-114.9,75.9-121.1,78-305.8,78c-234,0-560.3,47.2-794.3,114.9c-808.7,234-1317.7,773.8-1270.5,1344.4c51.3,607.5,638.3,1096,1537.3,1274.6c188.8,36.9,303.8,45.2,615.7,47.2h381.7l75.9,153.9c307.9,621.9,942.1,1040.6,1744.6,1147.3C5031.6,4247.3,5557.1,4226.8,5772.6,4181.6z"/><path d="M2084.3-926.9c-6.2-20.5-96.5-344.8-199.1-720.4c-104.7-377.7-186.8-687.6-182.7-691.7c18.5-16.4,314-90.3,322.2-80c6.2,6.2,100.6,330.4,209.4,722.5l197,712.2l-104.7,32.9C2133.6-890,2094.6-885.9,2084.3-926.9z"/><path d="M7989.2-916.7c-24.6-63.6-379.7-1375.1-379.7-1399.8c0-24.6,301.7-129.3,320.2-110.8c14.4,16.4,400.2,1436.7,392,1444.9c-8.2,8.2-291.5,90.3-312,90.3C8003.6-892.1,7993.3-904.4,7989.2-916.7z"/><path d="M5819.8-1819.8c-110.8-396.1-197-726.6-192.9-728.6c12.3-14.4,322.2-94.4,328.4-86.2c4.1,4.1,90.3,318.1,195,695.8c102.6,377.7,192.9,701.9,197,718.4c8.2,24.6-22.6,41.1-127.3,69.8c-78,20.5-153.9,41-170.4,47.2C6025-1097.3,5977.8-1243,5819.8-1819.8z"/><path d="M3974.6-1368.2c-12.3-49.2-100.6-369.4-195-712.2c-94.4-344.8-166.3-632.2-158-640.4c10.3-8.2,84.1-32.9,166.2-55.4c106.7-28.7,153.9-32.8,158-16.4c16.4,45.2,375.6,1358.7,383.8,1395.7c4.1,30.8-18.5,45.2-127.3,75.9C4009.5-1267.6,4003.4-1267.6,3974.6-1368.2z"/><path d="M2611.8-2839.8c-24.6-43.1-396.1-1430.6-383.8-1440.8c20.5-18.5,309.9-90.3,320.2-78c8.2,10.3,375.6,1342.3,385.9,1401.8c4.1,34.9-18.5,47.2-153.9,86.2C2693.9-2846,2617.9-2833.7,2611.8-2839.8z"/><path d="M4641.7-2850.1c-4.1-12.3-94.4-336.6-201.1-720.4c-127.3-465.9-182.7-701.9-168.3-712.2c30.8-20.5,299.7-84.1,309.9-73.9c22.6,20.5,396.1,1422.4,383.8,1434.7c-8.2,8.2-82.1,32.9-164.2,55.4C4695-2837.8,4647.8-2833.7,4641.7-2850.1z"/><path d="M6380.1-3519.2c-104.7-381.7-192.9-712.2-195-730.7c-2.1-24.6,32.9-43.1,131.4-71.8c73.9-20.5,147.8-37,164.2-39c24.6,0,78,170.4,223.7,704c106.7,385.8,192.9,710.2,195,720.4c2.1,10.3-71.8,41.1-162.1,65.7c-90.3,26.7-164.2,49.2-164.2,49.2S6486.8-3135.4,6380.1-3519.2z"/></g></g>
</svg>