<?xml version="1.0" encoding="utf-8"?>
<!-- Svg Vector Icons : http://www.sfont.cn -->
<!DOCTYPE svg PUBLIC "-//W3C//DTD SVG 1.1//EN" "http://www.w3.org/Graphics/SVG/1.1/DTD/svg11.dtd">
<svg version="1.1" xmlns="http://www.w3.org/2000/svg" xmlns:xlink="http://www.w3.org/1999/xlink" x="0px" y="0px" viewBox="0 0 1000 1000" enable-background="new 0 0 1000 1000" xml:space="preserve">
<metadata> Svg Vector Icons : http://www.sfont.cn </metadata>
<g fill="white"><g transform="translate(0.000000,511.000000) scale(0.100000,-0.100000)"><path d="M4774.2,4569c-474.7-65.8-949.4-252.8-1333.6-528.1c-205.5-148-491.1-450-595.9-628.8l-80.1-135.6h-197.3C1659,3274.3,728.1,2849,325.3,2248.9c-152.1-224-209.6-402.8-221.9-672c-8.2-207.5-4.1-248.6,43.1-400.7c78.1-248.6,180.8-408.9,406.9-632.9c378.1-376,865.1-608.2,1514.5-721.3c129.5-20.5,295.9-39.1,369.9-39.1c121.3,0,148-8.2,289.7-90.4c571.3-335,1165.2-499.3,1884.4-519.9c653.5-20.5,1224.7,84.3,1769.3,318.5c133.6,57.5,145.9,59.6,293.8,41.1c84.2-10.3,330.8-14.4,544.6-8.2c310.3,8.2,443.9,20.5,647.3,63.7C8927.2-192.3,9704,397.4,9872.5,1108.5c37,158.2,37,417.1-2,579.5c-168.5,711-1006.9,1339.8-2038.5,1524.8c-121.2,22.6-224,49.3-228.1,61.6c-28.8,88.4-246.6,371.9-402.8,526.1c-371.9,367.8-836.3,608.3-1407.6,731.6C5565.4,4581.3,5006.4,4601.8,4774.2,4569z M5740,4190.8c743.9-154.1,1319.3-569.2,1574.1-1132.3c63.7-141.8,61.7-139.7,275.4-162.3c67.8-8.2,230.2-37,359.6-65.8c776.8-170.6,1358.3-579.5,1545.3-1085c65.8-176.7,65.8-521.9,2.1-696.6c-302.1-803.5-1524.8-1302.8-2842-1161l-215.8,24.7l-123.3-61.7c-421.3-213.7-992.5-335-1572-335c-729.5,0-1341.9,166.4-1890.5,513.7l-154.1,98.6l-277.4,10.3C1498.7,179.6,732.2,594.7,508.2,1178.3c-67.8,172.6-76,452.1-22.6,632.9C689,2481.1,1601.4,2941.5,2694.6,2925l285.6-4.1L3081,3112c195.2,369.9,466.5,635,856.9,838.4c267.1,137.7,602.1,238.4,928.8,279.5C5024.9,4248.4,5579.8,4223.7,5740,4190.8z"/><path d="M2789.2-1024.6c0-2.1-90.4-326.7-201.4-723.3c-129.5-464.4-191.1-723.3-178.8-731.6c43.2-24.7,300-86.3,312.4-76c10.3,12.3,398.7,1401.5,398.7,1430.2C3120-1112.9,2795.3-1014.3,2789.2-1024.6z"/><path d="M7180.5-1135.5c-92.5-314.4-384.3-1409.7-376-1415.8c24.7-24.7,308.2-92.5,322.6-76s390.4,1376.8,390.4,1415.8c0,12.3-61.7,39.1-137.7,59.6c-78.1,20.5-150,41.1-164.4,45.2C7203.2-1100.6,7186.7-1115,7180.5-1135.5z"/><path d="M4963.3-1423.2c-6.2-10.3-94.5-326.7-197.3-704.8c-104.8-378.1-193.2-698.7-197.3-711c-6.2-20.5,314.4-123.3,330.8-106.9c8.2,10.3,400.7,1440.5,394.5,1444.6c-8.2,8.2-293.8,92.5-310.3,92.5C4977.7-1408.8,4967.4-1415,4963.3-1423.2z"/><path d="M3467.3-2832.9c0-2.1-90.4-326.7-201.4-723.3c-131.5-472.6-193.2-723.3-178.8-733.6c32.9-20.5,300-84.2,312.4-74c22.6,24.7,396.6,1424.1,382.2,1436.4C3769.4-2915.1,3471.4-2824.7,3467.3-2832.9z"/><path d="M5709.2-2839.1c0-4.1-88.4-326.7-197.3-719.2c-106.9-392.5-189.1-719.2-178.8-727.5c32.9-30.8,295.9-88.4,312.4-69.9c18.5,18.5,392.5,1366.5,392.5,1411.7c0,16.4-67.8,45.2-164.4,69.9C5783.2-2849.3,5709.2-2835,5709.2-2839.1z"/></g></g>
</svg>