<?xml version="1.0" encoding="utf-8"?>
<!-- Svg Vector Icons : http://www.sfont.cn -->
<!DOCTYPE svg PUBLIC "-//W3C//DTD SVG 1.1//EN" "http://www.w3.org/Graphics/SVG/1.1/DTD/svg11.dtd">
<svg version="1.1" xmlns="http://www.w3.org/2000/svg" xmlns:xlink="http://www.w3.org/1999/xlink" x="0px" y="0px" viewBox="0 0 1000 1000" enable-background="new 0 0 1000 1000" xml:space="preserve">
<metadata> Svg Vector Icons : http://www.sfont.cn </metadata>
<g fill="white"><g transform="translate(0.000000,511.000000) scale(0.100000,-0.100000)"><path d="M4848.1,4612.8c-658.8-100.6-1145.2-307.9-1576.2-675.2c-147.8-123.1-359.2-375.6-441.3-525.4l-53.4-94.4l-299.6-12.3C887.1,3235.7-243.8,2143.8,195.4,1099.2C482.8,415.7,1398.1-117.9,2375-171.3c213.4-12.3,217.6-12.3,402.3-121.1c628-361.2,1307.3-519.2,2111.9-494.6c529.5,16.4,981,108.8,1397.7,283.2c110.8,47.2,221.7,86.2,244.2,84.2c22.6,0,207.3-8.2,410.5-16.4c400.2-14.4,656.8,4.1,993.4,78C8550.6-226.7,9115,68.9,9468,444.5c416.6,443.3,535.7,954.3,340.7,1459.2c-156,398.2-554.1,790.2-1061.1,1044.6c-295.5,145.7-874.3,322.2-1063.1,322.2c-36.9,0-65.7,18.5-90.3,57.5c-141.6,227.8-229.9,346.9-350.9,472c-363.3,369.4-878.4,644.5-1436.7,765.5C5613.7,4606.6,5006.2,4635.4,4848.1,4612.8z M5771.7,4218.7c517.2-112.9,931.8-336.6,1239.6-673.2c131.3-141.6,291.4-392,332.5-515.1c16.4-53.3,34.9-67.7,86.2-75.9c704-100.6,1100.1-227.8,1475.7-478.2c745-498.7,855.8-1295,260.7-1877.9C8640.9,85.3,7625-187.7,6654.2-72.7l-192.9,22.6l-242.2-104.7c-441.3-188.8-814.8-266.8-1350.5-283.2c-804.5-24.6-1483.9,151.9-2046.2,531.6c-114.9,75.9-121.1,78-305.8,78c-681.4,0-1395.6,270.9-1758.9,667c-638.3,695.8-252.4,1596.7,841.5,1962.1c332.5,110.8,558.2,145.7,997.4,153.9l398.2,6.2l69.8,145.7c90.3,190.9,174.4,309.9,324.3,467.9c346.9,363.3,843.5,601.3,1418.2,679.3C5028.7,4284.4,5556.2,4263.9,5771.7,4218.7z"/><path d="M6366.9-1248.7c-26.7-78-379.7-1379.2-379.7-1401.8c0-22.6,303.8-123.1,322.2-104.7c14.4,14.4,398.1,1432.6,390,1440.8c-8.2,8.2-291.4,90.3-312,90.3C6381.3-1224.1,6371-1236.4,6366.9-1248.7z"/><path d="M3637.2-1265.2c-24.6-41-396.1-1428.4-383.8-1438.7c20.5-18.5,309.9-90.3,320.2-78c8.2,10.3,375.6,1342.3,385.8,1401.8c6.2,34.9-18.5,47.2-153.9,86.2C3719.3-1269.3,3643.4-1257,3637.2-1265.2z"/><path d="M4669.6-2890.6c-6.2-14.4-96.5-338.6-201.1-720.4c-149.8-541.8-186.8-697.8-166.2-712.2c45.2-26.7,289.4-88.3,303.8-75.9c12.3,14.4,394,1387.4,396.1,1422.3c0,12.3-59.5,39-129.3,57.5c-71.8,16.4-145.7,36.9-162.1,43.1C4692.2-2868,4673.7-2876.3,4669.6-2890.6z"/></g></g>
</svg>