<?xml version="1.0" encoding="utf-8"?>
<!-- Svg Vector Icons : http://www.sfont.cn -->
<!DOCTYPE svg PUBLIC "-//W3C//DTD SVG 1.1//EN" "http://www.w3.org/Graphics/SVG/1.1/DTD/svg11.dtd">
<svg version="1.1" xmlns="http://www.w3.org/2000/svg" xmlns:xlink="http://www.w3.org/1999/xlink" x="0px" y="0px" viewBox="0 0 1000 1000" enable-background="new 0 0 1000 1000" xml:space="preserve">
<metadata> Svg Vector Icons : http://www.sfont.cn </metadata>
<g fill="white"><g transform="translate(0.000000,511.000000) scale(0.100000,-0.100000)"><path d="M4807.2,4614.4c-326.5-61.6-429.2-86.2-605.8-145.8c-267-92.4-570.9-250.5-768-396.3c-308-230-601.7-587.3-722.9-878.9l-45.2-106.8h-135.5c-182.8,0-529.8-49.3-737.2-100.6c-835.8-213.6-1462.1-710.5-1647-1306.1c-82.1-269-51.3-626.3,76-881C523.5,195.1,1271-258.7,2168.4-384c230-30.8,763.9-26.7,996,8.2c193,30.8,195.1,30.8,410.7-30.8C4337-616,5152.2-616,5926.4-402.5l225.9,61.6l246.4-43.1C7965.6-657.1,9583.8,51.4,9861.1,1131.6c119.1,468.2-37,948.8-443.6,1349.2c-388.1,384-983.7,671.5-1622.3,780.4c-100.6,16.4-186.9,41.1-191,51.3c-24.6,67.8-225.9,345-345,472.3c-353.2,371.7-833.8,638.7-1404.6,774.2c-180.7,43.1-277.2,51.3-605.8,57.5C5035.2,4620.6,4836,4618.5,4807.2,4614.4z M5772.4,4226.3c724.9-158.1,1289.6-572.9,1542.2-1129.5c57.5-129.4,59.6-131.4,156.1-143.8c759.8-96.5,1285.5-303.9,1659.3-651c714.6-665.4,499-1566.9-492.9-2063.8C7994.4-84.1,7099-182.7,6318.7-12.3l-182.8,39l-197.1-61.6C5191.3-266.9,4306.2-269,3564.8-39L3380,16.5l-205.4-37c-287.5-49.3-961.1-37-1236.3,24.6C1260.7,154.1,761.7,476.5,550.2,899.5c-154,310.1-129.4,690,63.7,987.8c342.9,525.7,1121.3,848.1,2047.4,850.2h267l57.5,182.8c141.7,447.7,503.1,850.2,975.4,1088.4c182.8,92.4,474.4,186.9,712.6,230C4932.5,4285.8,5528,4279.7,5772.4,4226.3z"/><path d="M2271.1-961c-4.1-16.4-92.4-332.7-195.1-706.4c-102.7-371.7-188.9-687.9-195.1-702.3c-6.2-20.5,312.1-123.2,330.6-104.7c6.2,6.2,347.1,1230.1,388.1,1394.4c12.3,51.3,8.2,55.4-119.1,86.2c-71.9,18.5-145.8,39-164.3,47.3C2295.7-940.5,2277.2-946.6,2271.1-961z"/><path d="M7004.6-1287.5v-308h-308h-308v-174.6v-174.6h308h308v-308v-308h174.6h174.6v308v308h308h308v174.6v174.6h-308h-308v308v308h-174.6h-174.6V-1287.5z"/><path d="M4583.4-1725c-104.7-386.1-195.1-712.6-201.3-724.9c-6.2-18.5,316.3-123.2,332.7-106.8c10.3,12.3,402.5,1439.6,396.3,1445.7c-8.2,6.2-308,90.4-324.5,90.4C4780.6-1020.6,4690.2-1336.8,4583.4-1725z"/><path d="M3084.3-2780.5c-80.1-273.1-351.2-1273.2-351.2-1293.7c0-20.5,308-115,324.5-98.6c10.3,8.2,394.3,1400.5,394.3,1427.2c0,16.4-112.9,55.4-271.1,92.4C3127.4-2638.8,3125.4-2645,3084.3-2780.5z"/><path d="M5690.3-3131.7v-303.9l-308,8.2l-308,8.2v-176.6v-176.6h139.6c76,0,215.6-6.2,310.1-14.4l170.4-12.3l-6.2-299.8l-8.2-299.8h174.6h174.6l6.2,303.9l6.2,301.9h306h308v174.6v174.6h-308h-308v308v308h-174.6h-174.6V-3131.7z"/></g></g>
</svg>