<?xml version="1.0" encoding="utf-8"?>
<!-- Svg Vector Icons : http://www.sfont.cn -->
<!DOCTYPE svg PUBLIC "-//W3C//DTD SVG 1.1//EN" "http://www.w3.org/Graphics/SVG/1.1/DTD/svg11.dtd">
<svg version="1.1" xmlns="http://www.w3.org/2000/svg" xmlns:xlink="http://www.w3.org/1999/xlink" x="0px" y="0px" viewBox="0 0 1000 1000" enable-background="new 0 0 1000 1000" xml:space="preserve">
<metadata> Svg Vector Icons : http://www.sfont.cn </metadata>
<g fill="white"><g transform="translate(0.000000,511.000000) scale(0.100000,-0.100000)"><path d="M3760.7,4990.2c-1000.6-56.4-1899.3-191-2383.3-358.1c-395.1-136.7-657.7-332.1-709.8-529.6c-32.6-117.2-10.9-325.6,58.6-564.4c58.6-201.9,238.8-607.8,271.3-607.8s299.5,154.1,299.5,173.6c0,8.7-43.4,108.5-95.5,219.2c-138.9,293-217.1,638.2-167.1,733.7c32.6,58.6,297.4,184.5,534,251.8c738,210.5,1699.6,312.6,3125.7,329.9c1406.5,17.4,2483.2-54.3,3308-223.6c86.8-17.4,162.8-28.2,169.3-23.9c4.3,6.5,26,84.7,47.8,178c28.2,117.2,32.6,169.3,15.2,173.7c-243.1,82.5-1256.8,204-2053.4,249.6C5725.1,5016.2,4216.6,5016.2,3760.7,4990.2z"/><path d="M8850.8,4069.8c-297.4-162.8-883.4-338.6-1552-464.5c-484-93.3-926.8-158.5-2090.3-308.2c-553.5-69.5-1167.8-151.9-1367.5-182.3c-1341.4-199.7-2012.1-403.7-2248.7-683.7c-56.4-67.3-60.8-86.8-49.9-195.4c10.9-132.4,110.7-351.6,260.5-575.2c115-171.5,514.4-705.4,527.5-705.4c4.3,0,71.6,49.9,149.8,110.7l141.1,108.5l-193.2,254c-104.2,141.1-269.2,371.2-366.8,514.4l-173.7,260.5l43.4,45.6c69.4,78.1,325.6,180.1,633.8,258.3c486.2,123.7,1054.9,214.9,2346.4,379.9c1862.4,236.6,2409.4,323.4,3075.7,490.6c323.4,80.3,631.6,178,818.3,260.5c65.1,28.2,121.5,47.7,128.1,43.4c39.1-41.2-221.4-570.9-462.3-935.5c-193.2-293-321.2-429.8-471-510.1c-58.6-30.4-104.2-62.9-104.2-73.8c0-41.2,119.4-316.9,138.9-316.9c54.3,0,295.2,156.3,414.6,269.2c277.8,271.3,725,1037.6,844.4,1454.3c65.1,219.2,67.3,269.2,26,366.8C9243.7,4115.4,9039.6,4174,8850.8,4069.8z"/><path d="M7201.1,1400c-208.4-52.1-903-158.4-1476-227.9C4757,1054.9,4355.5,998.5,4029.9,933.3c-570.9-115-892.1-243.1-1057.1-421.1c-82.5-89-91.2-110.7-91.2-208.4c0-58.6,19.5-169.3,45.6-243.1c58.6-173.6,390.7-863.9,414.6-863.9c10.9,0,86.8,34.7,171.5,76l151.9,78.2l-223.6,429.8c-251.8,494.9-254,501.4-67.3,596.9c280,141.1,640.3,208.4,2038.2,382C5996.4,833.5,6638.9,920.3,6843,955c201.9,34.7,371.2,58.6,375.5,56.4c2.2-4.3-76-132.4-175.8-286.5C6845.1,421.1,6593.4-6.5,6593.4-41.3c0-19.6,267-175.8,301.7-175.8c8.7,0,45.6,52.1,78.1,115c104.2,193.2,399.4,666.4,549.2,883.5c119.4,173.7,143.3,223.6,151.9,316.9c13,145.4-32.6,230.1-154.1,288.7C7413.8,1439.1,7368.3,1441.3,7201.1,1400z"/><path d="M5812-1011.5c-102-15.2-449.3-58.6-774.9-95.5c-870.4-97.7-1100.5-149.8-1254.6-286.5c-138.9-121.5-143.3-260.5-21.7-685.9c28.2-99.8,65.1-258.3,78.1-356l28.2-173.7l108.5,13c60.8,8.7,143.3,19.5,182.3,28.2l73.8,13l-13,110.7c-19.5,141.1-56.4,312.6-130.2,586.1c-30.4,119.4-54.3,219.2-49.9,223.6c26,26.1,527.5,102,1122.2,169.3c375.5,43.4,720.6,82.5,766.2,91.2c43.4,6.5,80.3,8.7,80.3,4.3s-43.4-180.1-95.5-388.5c-52.1-208.4-89-386.4-82.5-395.1c8.7-6.5,91.2-28.2,184.5-45.6c165-30.4,167.1-30.4,178,15.2c34.7,169.3,149.8,616.4,184.5,720.6c52.1,149.8,54.3,199.7,10.9,308.2c-43.4,108.5-162.8,180.2-295.2,175.8C6039.9-981.2,5914-996.3,5812-1011.5z"/><path d="M5525.4-3138.7c-80.3-15.2-325.6-49.9-542.7-73.8c-694.6-80.3-900.8-141.1-1002.8-297.4c-52.1-78.1-54.3-91.2-32.6-223.6c84.6-551.3,449.3-959.4,926.8-1044.1c616.5-108.5,1196,505.7,1198.2,1267.6C6072.4-3151.8,5933.5-3056.2,5525.4-3138.7z M5703.4-3585.9c0-52.1-15.2-154.1-32.6-230.1c-91.2-382-332.1-596.9-672.9-596.9c-271.3-2.2-468.8,128.1-588.2,384.2c-56.4,123.7-110.7,332.1-89,351.6c8.7,8.7,212.7,36.9,453.7,65.1c243.1,28.2,529.6,65.1,636,82.5C5718.6-3483.9,5703.4-3479.5,5703.4-3585.9z"/></g></g>
</svg>