<?xml version="1.0" encoding="utf-8"?>
<!-- Svg Vector Icons : http://www.sfont.cn -->
<!DOCTYPE svg PUBLIC "-//W3C//DTD SVG 1.1//EN" "http://www.w3.org/Graphics/SVG/1.1/DTD/svg11.dtd">
<svg version="1.1" xmlns="http://www.w3.org/2000/svg" xmlns:xlink="http://www.w3.org/1999/xlink" x="0px" y="0px" viewBox="0 0 1000 1000" enable-background="new 0 0 1000 1000" xml:space="preserve">
<metadata> Svg Vector Icons : http://www.sfont.cn </metadata>
<g fill="white"><g transform="translate(0.000000,511.000000) scale(0.100000,-0.100000)"><path d="M102.3,1896.2c0-125.8,9-184.2,29.2-188.7c269.6-74.2,312.3-94.4,842.6-417.9c453.9-274.1,759.4-330.3,1118.9-204.5c101.1,33.7,258.4,107.9,348.3,164c92.1,53.9,262.9,159.5,379.7,231.4c489.8,301.1,620.1,289.8,1269.5-112.3c552.7-341.5,847.1-415.7,1215.5-301.1c193.2,60.7,271.9,98.9,597.7,303.3c453.8,283.1,519,312.3,725.7,312.3c206.7,0,271.9-29.2,725.7-312.3c325.8-204.5,404.4-242.7,597.6-303.3c213.4-65.2,420.1-62.9,638.1,11.2c191,62.9,249.4,94.4,656.1,348.3c265.1,166.3,483.1,267.4,579.7,267.4c35.9,0,44.9,22.5,58.4,137.1c26.9,265.1,33.7,253.9-119.1,238.2c-193.2-15.7-465.1-137.1-838-370.7c-384.2-240.4-514.5-296.6-676.3-296.6c-155,2.2-303.3,65.2-638.1,276.4c-498.8,312.3-710,397.7-984.1,397.7c-274.1,0-485.3-85.4-981.8-397.7c-334.8-209-494.3-276.4-651.6-276.4c-159.5,2.2-298.8,62.9-710,310.1c-422.4,256.1-626.9,341.5-856,357.3c-294.3,20.2-530.2-62.9-968.4-343.8c-130.3-83.1-305.6-186.5-393.2-231.4c-141.5-71.9-175.2-80.9-325.8-78.6c-202.2,0-274.1,29.2-649.3,265.1c-447.1,280.8-710,395.4-905.5,395.4h-85.4V1896.2z"/><path d="M106.7,453.7l6.7-184.2l112.3-24.7c139.3-31.5,278.6-103.4,613.4-312.3C1165-272,1243.6-310.2,1436.9-370.9c222.4-67.4,426.9-62.9,658.3,18c166.3,58.4,269.6,114.6,781.9,429.2C3065.8,193.1,3236.6,256,3360.1,256c146,0,305.6-69.7,669.6-289.8C4546.5-346.1,4724-418,5002.6-418c157.3,0,386.5,58.4,548.2,139.3c49.5,26.9,209,121.3,352.8,211.2c453.8,283.1,519,312.3,725.7,312.3c206.7,0,271.9-29.2,725.7-312.3c325.8-204.5,404.4-242.7,597.6-303.3c213.4-65.1,420.1-62.9,638.1,11.2c191,62.9,249.4,94.4,656.1,348.3C9511.9,154.9,9729.9,256,9826.5,256c35.9,0,44.9,22.5,58.4,119.1c6.8,62.9,13.5,150.5,13.5,193.2v76.4l-128.1-11.2c-200-18-440.4-125.8-824.6-364C8541.3,20.1,8413.2-36.1,8251.5-36.1c-155,2.2-303.3,65.1-638.1,276.3c-498.8,312.3-710,397.7-984.1,397.7c-274.1,0-485.3-85.4-981.8-397.7C5312.6,31.3,5153.1-36.1,4995.8-36.1c-159.5,2.2-298.8,62.9-710,310c-422.4,256.1-626.9,341.5-856,357.3c-294.3,20.2-530.2-62.9-968.4-343.8C2331.1,204.3,2155.8,101,2068.2,56c-141.5-71.9-175.2-80.9-325.8-78.6c-202.2,0-274.1,29.2-649.3,265.1C643.7,523.4,383.1,638,187.6,638H100L106.7,453.7z"/><path d="M106.7-984.2l6.7-184.2l112.3-24.7c139.3-31.5,278.6-103.4,613.4-312.3c325.8-204.5,404.4-242.6,597.7-303.3c314.6-96.6,644.8-38.2,1004.3,182c92.1,53.9,262.9,159.5,379.7,231.4c350.5,215.7,516.8,253.9,748.2,170.7c67.4-22.5,271.9-132.5,460.6-247.1c516.8-312.3,694.3-384.2,972.9-384.2c157.3,0,386.5,58.4,548.2,139.3c49.5,26.9,209,121.3,352.8,211.2c453.8,283.1,519,312.3,725.7,312.3c206.7,0,271.9-29.2,725.7-312.3c325.8-204.5,404.4-242.6,597.6-303.3c213.4-65.1,420.1-62.9,638.1,11.2c191,62.9,253.9,96.6,642.6,341.5c278.6,173,489.8,274.1,581.9,274.1c49.4,0,56.2,11.2,69.6,137c24.7,247.2,24.7,244.9-74.2,244.9c-49.4,0-170.8-24.7-267.3-56.2c-164-51.7-253.9-101.1-797.6-435.9c-310.1-191-503.3-224.7-734.7-130.3c-67.4,29.2-247.1,128.1-397.7,224.7c-498.8,312.3-710,397.7-984.1,397.7c-274.1,0-485.3-85.4-981.8-397.7c-334.8-209-494.3-276.4-651.6-276.4c-161.8,2.2-296.6,60.7-732.5,323.5c-597.7,361.8-862.8,422.4-1256,285.4c-166.3-56.2-271.9-114.6-777.4-426.9c-424.7-262.9-586.4-249.4-1134.6,94.4C643.7-914.6,383.1-800,187.6-800H100L106.7-984.2z"/></g></g>
</svg>